# Blender v3.0.1 OBJ File: 'blueboat_optimized.blend'
# www.blender.org
mtllib metal_fron.mtl
o front_metal1_Cube.002
v -0.018533 0.304442 -0.233413
v -0.018533 0.304442 -0.210290
v -0.018533 0.327564 -0.233413
v -0.018533 0.327564 -0.210290
v 0.004590 0.304442 -0.233413
v 0.004590 0.304442 -0.210290
v 0.004590 0.327564 -0.233413
v 0.004590 0.327564 -0.210290
v 0.004590 0.327564 -0.210290
v 0.004590 0.327564 -0.233413
v 0.004590 0.304442 -0.233413
v 0.004590 0.304442 -0.210290
v 0.292635 0.327564 -0.210290
v 0.292635 0.327564 -0.233413
v 0.292635 0.304442 -0.233413
v 0.292635 0.304442 -0.210290
v -0.260944 0.327564 -0.233413
v -0.260944 0.304442 -0.233413
v -0.260944 0.304442 -0.210290
v -0.260944 0.327564 -0.210290
vt 0.625000 0.250000
vt 0.375000 0.250000
vt 0.375000 0.250000
vt 0.625000 0.250000
vt 0.625000 0.500000
vt 0.375000 0.500000
vt 0.625000 0.750000
vt 0.625000 0.750000
vt 0.625000 0.500000
vt 0.375000 0.750000
vt 0.625000 1.000000
vt 0.375000 1.000000
vt 0.125000 0.500000
vt 0.125000 0.750000
vt 0.875000 0.500000
vt 0.875000 0.750000
vt 0.375000 0.750000
vt 0.375000 0.750000
vt 0.625000 0.750000
vt 0.375000 0.500000
vt 0.375000 0.500000
vt 0.625000 0.500000
vt 0.375000 0.000000
vt 0.625000 0.000000
vt 0.625000 1.000000
vt 0.375000 1.000000
vt 0.875000 0.500000
vt 0.875000 0.750000
vt 0.125000 0.750000
vt 0.125000 0.500000
vn 0.0000 0.7071 0.7071
vn 0.0000 0.7071 -0.7071
vn -0.5773 0.5773 -0.5773
vn -0.5773 0.5773 0.5773
vn 0.0000 0.3162 0.9487
vn 0.0000 -0.3162 0.9487
vn 0.0000 -0.7071 0.7071
vn 0.0000 -0.7071 -0.7071
vn 0.5773 -0.5773 -0.5773
vn 0.5773 -0.5773 0.5773
vn 0.5773 0.5773 -0.5773
vn 0.5773 0.5773 0.5773
vn -0.5773 -0.5773 -0.5773
vn -0.5773 -0.5773 0.5773
usemtl None
s 1
f 4/1/1 3/2/2 17/3/3 20/4/4
f 3/2/2 4/1/1 8/5/5 7/6/1
f 8/5/5 6/7/6 12/8/6 9/9/5
f 5/10/7 6/7/6 2/11/7 1/12/8
f 3/13/2 7/6/1 5/10/7 1/14/8
f 8/5/5 4/15/1 2/16/7 6/7/6
f 12/8/6 11/17/7 15/18/9 16/19/10
f 7/6/1 8/5/5 9/9/5 10/20/1
f 6/7/6 5/10/7 11/17/7 12/8/6
f 5/10/7 7/6/1 10/20/1 11/17/7
f 14/21/11 13/22/12 16/19/10 15/18/9
f 11/17/7 10/20/1 14/21/11 15/18/9
f 9/9/5 12/8/6 16/19/10 13/22/12
f 10/20/1 9/9/5 13/22/12 14/21/11
f 18/23/13 19/24/14 20/4/4 17/3/3
f 1/12/8 2/11/7 19/25/14 18/26/13
f 2/16/7 4/15/1 20/27/4 19/28/14
f 3/13/2 1/14/8 18/29/13 17/30/3
