# Blender v3.0.1 OBJ File: 'blueboat_optimized.blend'
# www.blender.org
mtllib metal.mtl
o front_metal1_Cube.002
v -0.018533 0.327564 -0.210290
v -0.018533 0.327564 -0.233413
v -0.260944 0.327564 -0.233413
v -0.260944 0.327564 -0.210290
v 0.004590 0.327564 -0.210290
v 0.004590 0.327564 -0.233413
v 0.004590 0.304442 -0.210290
v 0.004590 0.304442 -0.210290
v 0.004590 0.327564 -0.210290
v 0.004590 0.304442 -0.233413
v -0.018533 0.304442 -0.210290
v -0.018533 0.304442 -0.233413
v 0.004590 0.304442 -0.233413
v 0.292635 0.304442 -0.233413
v 0.292635 0.304442 -0.210290
v 0.004590 0.327564 -0.233413
v 0.292635 0.327564 -0.233413
v 0.292635 0.327564 -0.210290
v -0.260944 0.304442 -0.233413
v -0.260944 0.304442 -0.210290
vt 0.625000 0.250000
vt 0.625000 0.250000
vt 0.375000 0.250000
vt 0.375000 0.250000
vt 0.375000 0.500000
vt 0.625000 0.500000
vt 0.625000 0.500000
vt 0.625000 0.750000
vt 0.625000 0.750000
vt 0.375000 0.750000
vt 0.375000 1.000000
vt 0.625000 1.000000
vt 0.125000 0.500000
vt 0.125000 0.750000
vt 0.875000 0.750000
vt 0.875000 0.500000
vt 0.625000 0.750000
vt 0.375000 0.750000
vt 0.375000 0.750000
vt 0.375000 0.500000
vt 0.375000 0.500000
vt 0.625000 0.500000
vt 0.375000 0.000000
vt 0.625000 0.000000
vt 0.375000 1.000000
vt 0.625000 1.000000
vt 0.875000 0.750000
vt 0.875000 0.500000
vt 0.125000 0.500000
vt 0.125000 0.750000
vn 0.0000 -1.0000 0.0000
vn 0.0000 0.0000 0.0000
vn 0.0000 1.0000 0.0000
vn 0.0000 0.0000 1.0000
vn 0.0000 0.0000 -1.0000
vn -1.0000 0.0000 0.0000
vn 1.0000 0.0000 0.0000
usemtl None
s 1
f 1/1/1 4/2/1 3/3/1 2/4/1
f 2/4/1 6/5/1 5/6/1 1/1/1
f 5/6/2 9/7/2 8/8/2 7/9/2
f 10/10/3 12/11/3 11/12/3 7/9/3
f 2/13/4 12/14/4 10/10/4 6/5/4
f 5/6/2 7/9/2 11/15/5 1/16/5
f 8/8/3 15/17/3 14/18/3 13/19/3
f 6/5/2 16/20/2 9/7/2 5/6/2
f 7/9/2 8/8/2 13/19/2 10/10/2
f 10/10/2 13/19/2 16/20/2 6/5/2
f 17/21/6 14/18/6 15/17/6 18/22/6
f 13/19/4 14/18/4 17/21/4 16/20/4
f 9/7/2 18/22/5 15/17/5 8/8/2
f 16/20/1 17/21/1 18/22/1 9/7/1
f 19/23/7 3/3/7 4/2/7 20/24/7
f 12/11/3 19/25/3 20/26/3 11/12/3
f 11/15/5 20/27/5 4/28/5 1/16/5
f 2/13/4 3/29/4 19/30/4 12/14/4
