# Blender 4.2.0
# www.blender.org
mtllib rear_metal.mtl
o metal_rear_Cube.001
v -0.270253 0.018533 -0.233413
v -0.270253 0.018533 -0.210290
v -0.247130 0.018533 -0.233413
v -0.247130 0.018533 -0.210290
v -0.270253 -0.004590 -0.233413
v -0.270253 -0.004590 -0.210290
v -0.247130 -0.004590 -0.233413
v -0.247130 -0.004590 -0.210290
v -0.247130 -0.004590 -0.210290
v -0.247130 -0.004590 -0.233413
v -0.270253 -0.004590 -0.233413
v -0.270253 -0.004590 -0.210290
v -0.247130 -0.292635 -0.210290
v -0.247130 -0.292635 -0.233413
v -0.270253 -0.292635 -0.233413
v -0.270253 -0.292635 -0.210290
v -0.247130 0.260944 -0.233413
v -0.270253 0.260944 -0.233413
v -0.270253 0.260944 -0.210290
v -0.247130 0.260944 -0.210290
vn 1.0000 -0.0000 -0.0000
vn -0.0000 -0.0000 1.0000
vn -1.0000 -0.0000 -0.0000
vn -0.0000 -0.0000 -1.0000
vn -0.0000 -0.0000 -0.0000
vn -0.0000 -1.0000 -0.0000
vn -0.0000 1.0000 -0.0000
vt 0.625000 0.250000
vt 0.375000 0.250000
vt 0.625000 0.500000
vt 0.375000 0.500000
vt 0.625000 0.750000
vt 0.375000 0.750000
vt 0.625000 1.000000
vt 0.375000 1.000000
vt 0.125000 0.500000
vt 0.125000 0.750000
vt 0.875000 0.500000
vt 0.875000 0.750000
vt 0.375000 0.000000
vt 0.625000 0.000000
s 0
usemtl None.002
f 4/1/1 3/2/1 17/2/1 20/1/1
f 3/2/1 4/1/1 8/3/1 7/4/1
f 8/3/2 6/5/2 12/5/2 9/3/2
f 5/6/3 6/5/3 2/7/3 1/8/3
f 3/9/4 7/4/4 5/6/4 1/10/4
f 8/3/2 4/11/2 2/12/2 6/5/2
f 12/5/3 11/6/3 15/6/3 16/5/3
f 7/4/5 8/3/5 9/3/5 10/4/5
f 6/5/5 5/6/5 11/6/5 12/5/5
f 5/6/2 7/4/2 10/4/2 11/6/2
f 14/4/6 13/3/6 16/5/6 15/6/6
f 11/6/4 10/4/4 14/4/4 15/6/4
f 9/3/2 12/5/2 16/5/2 13/3/2
f 10/4/1 9/3/1 13/3/1 14/4/1
f 18/13/7 19/14/7 20/1/7 17/2/7
f 1/8/3 2/7/3 19/7/3 18/8/3
f 2/12/2 4/11/2 20/11/2 19/12/2
f 3/9/4 1/10/4 18/10/4 17/9/4
