# Blender 4.5.3 LTS
# www.blender.org
o float_logo
v -1.586497 0.901748 -1.237189
v -0.105274 0.901748 -1.237189
v -0.106015 0.901748 -0.671210
v -1.584806 0.901748 -0.671210
v -1.586497 -0.901748 -1.237189
v -0.105275 -0.901748 -1.237189
v -0.106015 -0.901748 -0.671210
v -1.584806 -0.901748 -0.671210
v -1.586497 -0.924319 -1.237189
v -0.105275 -0.924319 -1.237189
v -1.584806 -0.924319 -0.671210
v -0.106015 -0.924319 -0.671210
v -1.586497 0.922667 -1.237189
v -1.584806 0.922667 -0.671210
v -0.105274 0.922667 -1.237189
v -0.106015 0.922667 -0.671210
v -1.586497 0.901748 -1.237189
v -1.586497 0.901748 -1.237189
v -1.584806 0.901748 -0.671210
v -1.584806 0.901748 -0.671210
v -0.105274 0.901748 -1.237189
v -0.105274 0.901748 -1.237189
v -1.586497 -0.901748 -1.237189
v -1.586497 -0.901748 -1.237189
v -0.105275 -0.901748 -1.237189
v -0.105275 -0.901748 -1.237189
v -1.584806 -0.901748 -0.671210
v -1.584806 -0.901748 -0.671210
v -0.106015 0.901748 -0.671210
v -0.106015 0.901748 -0.671210
v -0.106015 -0.901748 -0.671210
v -0.106015 -0.901748 -0.671210
v -1.586497 -0.924319 -1.237189
v -1.586497 -0.924319 -1.237189
v -0.105275 -0.924319 -1.237189
v -0.105275 -0.924319 -1.237189
v -1.584806 -0.924319 -0.671210
v -1.584806 -0.924319 -0.671210
v -0.106015 -0.924319 -0.671210
v -0.106015 -0.924319 -0.671210
v -1.586497 0.922667 -1.237189
v -1.586497 0.922667 -1.237189
v -1.584806 0.922667 -0.671210
v -1.584806 0.922667 -0.671210
v -0.105274 0.922667 -1.237189
v -0.105274 0.922667 -1.237189
v -0.106015 0.922667 -0.671210
v -0.106015 0.922667 -0.671210
vn -0.0000 -1.0000 -0.0000
vn -0.0000 1.0000 -0.0000
vn -0.0000 -0.0000 1.0000
vn -1.0000 -0.0000 0.0030
vn -0.0000 -0.0000 -1.0000
vn 1.0000 -0.0000 0.0013
vt 0.000000 0.120000
vt 0.000000 1.120000
vt 1.000000 1.120000
vt 1.000000 0.120000
s 1
f 19/1/1 17/2/1 21/3/1
f 25/2/2 23/3/2 27/4/2
f 19/1/1 21/3/1 29/4/1
f 25/2/2 27/4/2 31/1/2
f 35/2/1 37/4/1 33/3/1
f 35/2/1 39/1/1 37/4/1
f 28/4/3 40/1/3 32/1/3
f 24/3/4 11/4/4 8/4/4
f 26/2/5 9/3/5 5/3/5
f 7/1/6 10/2/6 6/2/6
f 43/1/2 45/3/2 41/2/2
f 43/1/2 47/4/2 45/3/2
f 18/2/5 46/3/5 22/3/5
f 20/1/4 13/2/4 1/2/4
f 2/3/6 48/4/6 30/4/6
f 3/4/3 14/1/3 4/1/3
f 28/4/3 38/4/3 40/1/3
f 24/3/4 34/3/4 11/4/4
f 26/2/5 36/2/5 9/3/5
f 7/1/6 12/1/6 10/2/6
f 18/2/5 42/2/5 46/3/5
f 20/1/4 44/1/4 13/2/4
f 2/3/6 15/3/6 48/4/6
f 3/4/3 16/4/3 14/1/3
