# Blender 4.5.3 LTS
# www.blender.org
o FloatPhy
v -1.337733 -0.601187 -1.190762
v -1.128387 -0.647766 -1.225725
v -1.119646 -0.688769 -1.218764
v -1.129685 -0.596799 -1.228174
v -1.228460 -0.636374 -1.218133
v -1.228002 -0.720342 -1.188798
v -1.123453 -0.742701 -1.194247
v -1.130380 -0.718453 -1.208302
v -1.215624 -0.691778 -1.209084
v -1.327213 -0.646824 -1.189816
v -1.268077 -0.660576 -1.207680
v -1.283311 -0.689015 -1.190722
v -1.119646 -0.720342 -0.748175
v -1.134604 -0.745941 -0.767270
v -1.228460 -0.718453 -0.765673
v -1.130380 -0.689015 -0.738262
v -1.291211 -0.689422 -0.777451
v -1.246898 -0.691246 -0.752070
v -1.061276 0.637806 -1.227901
v -1.130380 0.689015 -1.218133
v -1.286830 0.688769 -1.188798
v -1.283311 0.636374 -1.208302
v -1.064666 0.722693 -1.208438
v -1.133412 0.745919 -1.188848
v -1.206356 0.698851 -1.209052
v -1.228460 0.718453 -1.190722
v -1.337733 0.601187 -0.765633
v -1.126309 0.705476 -0.741820
v -1.133813 0.627969 -0.728895
v -1.228460 0.636374 -0.738262
v -1.228002 0.720342 -0.767597
v -1.120141 0.742512 -0.761350
v -1.215624 0.691778 -0.747311
v -1.291211 0.601106 -0.747957
v -1.326894 0.647331 -0.766567
v -1.268077 0.660576 -0.748716
v -1.283311 0.689015 -0.765673
v 1.265112 -0.633951 -1.225721
v 1.326291 -0.691356 -1.209225
v 1.401878 -0.689422 -1.178944
v 1.378744 -0.687150 -1.198805
v 1.393978 -0.636374 -1.208302
v 1.235353 -0.706996 -1.214040
v 1.243492 -0.746511 -1.189009
v 1.339127 -0.718453 -1.190722
v 1.448399 -0.601187 -0.765633
v 1.239056 -0.647766 -0.730670
v 1.230312 -0.688769 -0.737631
v 1.240323 -0.596819 -0.728221
v 1.339127 -0.636374 -0.738262
v 1.338669 -0.720342 -0.767597
v 1.228986 -0.743328 -0.761727
v 1.326291 -0.691778 -0.747311
v 1.401878 -0.601106 -0.747957
v 1.437879 -0.646824 -0.766579
v 1.378744 -0.660576 -0.748716
v 1.393978 -0.689015 -0.765673
v 1.239054 0.647766 -1.225725
v 1.230312 0.688769 -1.218764
v 1.240319 0.596725 -1.228179
v 1.339127 0.636375 -1.218134
v 1.338669 0.720342 -1.188798
v 1.235522 0.743730 -1.192974
v 1.241046 0.718453 -1.208302
v 1.433093 0.638759 -1.194794
v 1.357454 0.677151 -1.209052
v 1.393978 0.689015 -1.190722
v 1.175484 0.747661 -0.765633
v 1.261691 0.635586 -0.730654
v 1.369440 0.632451 -0.741594
v 1.172013 0.637779 -0.728492
v 1.241046 0.689015 -0.738262
v 1.326291 0.691356 -0.747170
v 1.401878 0.689422 -0.777451
v 1.439819 0.632520 -0.762857
v 1.378744 0.687150 -0.757590
v 1.230312 0.720342 -0.748175
v 1.267018 0.740778 -0.766383
v 1.339127 0.718453 -0.765673
v -1.058743 -0.637466 -0.728418
v 1.169710 -0.637541 -1.227967
v 1.455333 -0.601106 -1.178944
v 1.450181 0.634421 -0.778500
v 1.449196 0.636018 -1.179501
v 1.338669 -0.630614 -1.218764
v 1.401878 0.601106 -1.208438
v 1.442167 -0.632091 -1.193365
v -1.344667 0.601106 -1.178944
v -1.344666 -0.601106 -0.777451
v -1.291211 -0.601106 -1.208438
v -1.330235 0.631238 -1.194153
v -1.153589 0.631557 -1.226090
v -1.228002 0.630613 -1.218764
v -1.283311 -0.636374 -0.748093
v -1.328981 -0.633887 -0.762048
v -1.149974 -0.636693 -0.730784
v -1.228004 -0.630614 -0.737631
v 1.175333 0.751383 -1.178944
v -1.126740 0.748617 -0.778500
v -1.126740 -0.748617 -1.177895
v 1.241046 -0.718453 -0.748093
v 1.237407 -0.748617 -0.778500
vn -0.6155 -0.0791 -0.7842
vn -0.0421 -0.1106 -0.9930
vn -0.0401 -0.2358 -0.9710
vn -0.0445 -0.0198 -0.9988
vn -0.1263 -0.0897 -0.9879
vn -0.2982 -0.7720 -0.5613
vn -0.0835 -0.7023 -0.7070
vn -0.0619 -0.4172 -0.9067
vn -0.1478 -0.3226 -0.9349
vn -0.5921 -0.3529 -0.7245
vn -0.2281 -0.2152 -0.9495
vn -0.4371 -0.6121 -0.6590
vn -0.0540 -0.4278 0.9023
vn -0.1123 -0.8315 0.5441
vn -0.2872 -0.7373 0.6115
vn -0.0516 -0.2353 0.9705
vn -0.5894 -0.7582 0.2788
vn -0.2054 -0.3590 0.9104
vn -0.0097 0.0855 -0.9963
vn -0.0467 0.2368 -0.9704
vn -0.4829 0.6201 -0.6183
vn -0.2315 0.1320 -0.9638
vn -0.0213 0.4286 -0.9032
vn -0.1112 0.8341 -0.5403
vn -0.1426 0.3384 -0.9301
vn -0.2937 0.7532 -0.5885
vn -0.6156 0.0801 0.7840
vn -0.0476 0.2939 0.9546
vn -0.0430 0.0744 0.9963
vn -0.1248 0.0923 0.9879
vn -0.2982 0.7731 0.5598
vn -0.0787 0.6789 0.7300
vn -0.1467 0.3205 0.9358
vn -0.2369 0.0383 0.9708
vn -0.5919 0.3557 0.7233
vn -0.2281 0.2151 0.9496
vn -0.4373 0.6135 0.6575
vn 0.0592 -0.0817 -0.9949
vn 0.1423 -0.3071 -0.9410
vn 0.5936 -0.7707 -0.2317
vn 0.3010 -0.4208 -0.8557
vn 0.2284 -0.1165 -0.9666
vn 0.0488 -0.3246 -0.9446
vn 0.1055 -0.8089 -0.5784
vn 0.2803 -0.7370 -0.6150
vn 0.6159 -0.0781 0.7840
vn 0.0421 -0.1106 0.9930
vn 0.0400 -0.2360 0.9709
vn 0.0446 -0.0196 0.9988
vn 0.1263 -0.0896 0.9879
vn 0.2973 -0.7717 0.5622
vn 0.0795 -0.6981 0.7116
vn 0.1478 -0.3228 0.9348
vn 0.2372 -0.0385 0.9707
vn 0.5921 -0.3529 0.7245
vn 0.2281 -0.2152 0.9495
vn 0.4371 -0.6121 0.6590
vn 0.0418 0.1102 -0.9930
vn 0.0418 0.2389 -0.9702
vn 0.0444 0.0198 -0.9988
vn 0.1296 0.0879 -0.9877
vn 0.2921 0.7835 -0.5484
vn 0.0993 0.7523 -0.6513
vn 0.0662 0.4142 -0.9078
vn 0.4443 0.2040 -0.8723
vn 0.1811 0.2710 -0.9454
vn 0.4504 0.6144 -0.6479
vn 0.0279 0.8181 0.5745
vn 0.0620 0.0761 0.9952
vn 0.1710 0.0920 0.9810
vn 0.0103 0.0842 0.9964
vn 0.0469 0.2316 0.9717
vn 0.1437 0.3071 0.9408
vn 0.5678 0.7760 0.2745
vn 0.4673 0.1908 0.8633
vn 0.3032 0.4136 0.8585
vn 0.0527 0.4229 0.9046
vn 0.1547 0.8187 0.5530
vn 0.2904 0.7368 0.6106
vn -0.0108 -0.0832 0.9965
vn 0.0113 -0.0891 -0.9960
vn 0.9404 -0.1545 -0.3029
vn 0.8793 0.3672 0.3034
vn 0.8510 0.3809 -0.3615
vn 0.1314 -0.0803 -0.9881
vn 0.2409 0.0368 -0.9699
vn 0.5106 -0.2219 -0.8307
vn -0.9363 0.1774 -0.3032
vn -0.9290 -0.1740 0.3266
vn -0.2369 -0.0383 -0.9708
vn -0.4932 0.2221 -0.8411
vn -0.0595 0.0726 -0.9956
vn -0.1327 0.0820 -0.9878
vn -0.2274 -0.1114 0.9674
vn -0.4926 -0.2308 0.8391
vn -0.0590 -0.0798 0.9951
vn -0.1283 -0.0811 0.9884
vn 0.0479 0.9810 -0.1881
vn -0.1238 0.9793 0.1600
vn -0.1229 -0.9802 -0.1554
vn 0.0630 -0.4137 0.9082
vn 0.1244 -0.9810 0.1491
vt 0.144415 0.732903
vt 0.135554 0.730818
vt 0.144267 0.725000
vt 0.144182 0.750000
vt 0.136772 0.744237
vt 0.145161 0.739479
vt 0.395161 1.000000
vt 0.392142 0.980114
vt 0.400000 0.980478
vt 0.125000 0.734776
vt 0.125000 0.725000
vt 0.394705 0.017137
vt 0.375000 0.015224
vt 0.394182 0.010554
vt 0.625000 0.980818
vt 0.619237 1.000000
vt 0.614479 0.979839
vt 0.857910 0.730814
vt 0.855818 0.750000
vt 0.849877 0.730918
vt 0.605818 0.000000
vt 0.614300 0.008651
vt 0.600000 0.010308
vt 0.606708 0.019731
vt 0.614446 0.019182
vt 0.142117 0.520045
vt 0.144182 0.510554
vt 0.150000 0.518946
vt 0.125000 0.519182
vt 0.135683 0.505650
vt 0.135521 0.520161
vt 0.150000 0.500000
vt 0.395253 0.268983
vt 0.375000 0.252267
vt 0.394182 0.260554
vt 0.604839 0.260521
vt 0.607851 0.270157
vt 0.600000 0.269522
vt 0.625000 0.230818
vt 0.613927 0.234776
vt 0.614692 0.225000
vt 0.605308 0.232863
vt 0.605818 0.239446
vt 0.357896 0.730375
vt 0.360550 0.749925
vt 0.349884 0.730931
vt 0.394182 0.760554
vt 0.389616 0.738928
vt 0.400000 0.739692
vt 0.393249 0.730048
vt 0.385554 0.730818
vt 0.644415 0.732903
vt 0.635554 0.730818
vt 0.644269 0.725000
vt 0.614446 0.769182
vt 0.622687 0.758076
vt 0.635475 0.759686
vt 0.604839 0.760521
vt 0.607846 0.770343
vt 0.600000 0.769522
vt 0.613927 0.735384
vt 0.614692 0.725000
vt 0.605295 0.732863
vt 0.605818 0.739446
vt 0.355585 0.517097
vt 0.364446 0.519182
vt 0.355731 0.525000
vt 0.365897 0.489921
vt 0.376642 0.508833
vt 0.354839 0.510521
vt 0.385308 0.525000
vt 0.392078 0.518805
vt 0.394182 0.510554
vt 0.400000 0.519250
vt 0.642096 0.519373
vt 0.635079 0.490897
vt 0.649999 0.518950
vt 0.605818 0.489446
vt 0.609776 0.510464
vt 0.600000 0.510308
vt 0.607857 0.519927
vt 0.625821 0.519710
vt 0.614479 0.479839
vt 0.605440 0.482867
vt 0.605838 0.475000
vt 0.623091 0.492082
vt 0.605838 0.725000
vt 0.600000 0.519522
vt 0.375000 0.988228
vt 0.375000 0.000000
vt 0.375000 0.025000
vt 0.604891 0.981025
vt 0.875000 0.729839
vt 0.875000 0.738228
vt 0.375000 0.230818
vt 0.395161 0.239479
vt 0.875000 0.519182
vt 0.854839 0.500000
vt 0.875000 0.511772
vt 0.375000 0.275000
vt 0.618991 0.251948
vt 0.366924 0.747687
vt 0.364479 0.729839
vt 0.395194 0.768980
vt 0.395161 0.489479
vt 0.605818 1.000000
vt 0.395161 0.000000
vt 0.600000 0.025000
vt 0.625000 0.020161
vt 0.393211 0.229852
vt 0.400000 0.225000
vt 0.393298 0.480302
vt 0.619937 0.269691
vt 0.400000 0.475000
vt 0.400000 0.725000
vt 0.855784 0.520144
vt 0.375000 0.980818
vt 0.394162 0.025000
vt 0.605838 0.225000
s 1
f 2/1/2 5/2/5 4/3/4
f 8/4/8 9/5/9 3/6/3
f 6/7/6 7/8/7 100/9/100
f 5/2/5 11/10/11 90/11/90
f 10/12/10 11/13/11 12/14/12
f 16/15/16 18/16/18 13/17/13
f 96/18/96 16/19/16 80/20/80
f 15/21/15 18/22/18 17/23/17
f 95/24/95 18/22/18 94/25/94
f 92/26/92 20/27/20 19/28/19
f 22/29/22 25/30/25 93/31/93
f 20/27/20 25/30/25 23/32/23
f 24/33/24 25/34/25 26/35/26
f 31/36/31 32/37/32 99/38/99
f 30/39/30 36/40/36 34/41/34
f 35/42/35 36/40/36 37/43/37
f 38/44/38 43/45/43 81/46/81
f 45/47/45 41/48/41 40/49/40
f 87/50/87 41/48/41 42/51/42
f 47/52/47 50/53/50 49/54/49
f 101/55/101 53/56/53 48/57/48
f 51/58/51 52/59/52 102/60/102
f 50/53/50 56/61/56 54/62/54
f 55/63/55 56/61/56 57/64/57
f 58/65/58 61/66/61 60/67/60
f 64/68/64 66/69/66 59/70/59
f 61/66/61 66/69/66 86/71/86
f 65/72/65 67/73/67 84/74/84
f 65/72/65 66/69/66 67/73/67
f 69/75/69 72/76/72 71/77/71
f 79/78/79 76/79/76 74/80/74
f 75/81/75 76/79/76 70/82/70
f 77/83/77 78/84/78 68/85/68
f 72/76/72 73/86/73 77/83/77
f 58/65/58 60/67/60 19/28/19
f 38/44/38 81/46/81 60/67/60
f 69/75/69 71/77/71 49/54/49
f 75/81/75 46/87/46 83/88/83
f 2/1/2 4/3/4 81/46/81
f 47/52/47 49/54/49 80/20/80
f 9/89/9 7/8/7 6/7/6
f 9/90/9 12/14/12 11/13/11
f 10/12/10 90/91/90 11/13/11
f 18/16/18 14/92/14 13/17/13
f 5/2/5 9/5/9 11/10/11
f 16/19/16 97/93/97 18/94/18
f 9/5/9 2/1/2 3/6/3
f 25/30/25 92/26/92 93/31/93
f 17/23/17 18/22/18 95/24/95
f 22/95/22 21/96/21 25/34/25
f 30/97/30 28/98/28 33/99/33
f 23/100/23 25/34/25 24/33/24
f 33/101/33 32/37/32 31/36/31
f 33/101/33 37/43/37 36/40/36
f 35/42/35 34/41/34 36/40/36
f 39/102/39 38/44/38 85/103/85
f 30/39/30 33/101/33 36/40/36
f 39/102/39 42/51/42 41/48/41
f 39/102/39 44/104/44 43/45/43
f 40/49/40 41/48/41 87/50/87
f 45/47/45 39/102/39 41/48/41
f 53/56/53 47/52/47 48/57/48
f 53/56/53 52/59/52 51/58/51
f 53/56/53 57/64/57 56/61/56
f 55/63/55 54/62/54 56/61/56
f 66/69/66 58/65/58 59/70/59
f 50/53/50 53/56/53 56/61/56
f 64/68/64 62/105/62 66/69/66
f 73/86/73 69/75/69 70/82/70
f 86/71/86 66/69/66 65/72/65
f 73/86/73 70/82/70 76/79/76
f 75/81/75 74/80/74 76/79/76
f 73/86/73 78/84/78 77/83/77
f 79/78/79 73/86/73 76/79/76
f 90/11/90 93/31/93 5/2/5
f 6/7/6 14/92/14 15/106/15
f 17/23/17 6/107/6 15/21/15
f 10/12/10 17/23/17 95/24/95
f 89/108/89 10/12/10 95/24/95
f 34/41/34 97/109/97 30/39/30
f 31/36/31 24/33/24 26/35/26
f 21/96/21 31/36/31 26/35/26
f 35/42/35 21/96/21 91/110/91
f 88/111/88 35/42/35 91/110/91
f 59/70/59 19/28/19 20/27/20
f 23/32/23 59/70/59 20/27/20
f 63/112/63 23/100/23 24/33/24
f 28/98/28 71/77/71 72/76/72
f 77/83/77 28/113/28 72/76/72
f 74/80/74 84/74/84 67/73/67
f 62/105/62 74/80/74 67/73/67
f 78/84/78 62/105/62 63/112/63
f 98/114/98 78/84/78 63/112/63
f 84/74/84 87/50/87 65/72/65
f 70/82/70 49/54/49 50/53/50
f 54/62/54 70/82/70 50/53/50
f 75/81/75 54/62/54 46/87/46
f 51/58/51 44/104/44 45/47/45
f 40/49/40 51/58/51 45/47/45
f 55/63/55 40/49/40 87/50/87
f 82/115/82 55/63/55 87/50/87
f 3/6/3 81/46/81 43/45/43
f 7/8/7 43/45/43 44/104/44
f 48/57/48 80/20/80 16/19/16
f 13/17/13 48/57/48 16/15/16
f 19/28/19 60/67/60 81/46/81
f 71/77/71 29/116/29 80/20/80
f 9/89/9 8/117/8 7/8/7
f 9/90/9 6/107/6 12/14/12
f 10/12/10 1/118/1 90/91/90
f 18/16/18 15/106/15 14/92/14
f 16/19/16 96/18/96 97/93/97
f 9/5/9 5/2/5 2/1/2
f 18/22/18 97/109/97 94/25/94
f 25/30/25 20/27/20 92/26/92
f 22/95/22 91/110/91 21/96/21
f 25/34/25 21/96/21 26/35/26
f 30/97/30 29/116/29 28/98/28
f 33/101/33 28/113/28 32/37/32
f 33/101/33 31/36/31 37/43/37
f 35/42/35 27/119/27 34/41/34
f 39/102/39 43/45/43 38/44/38
f 39/102/39 85/103/85 42/51/42
f 39/102/39 45/47/45 44/104/44
f 53/56/53 50/53/50 47/52/47
f 53/56/53 101/55/101 52/59/52
f 53/56/53 51/58/51 57/64/57
f 55/63/55 46/87/46 54/62/54
f 66/69/66 61/66/61 58/65/58
f 64/68/64 63/112/63 62/105/62
f 66/69/66 62/105/62 67/73/67
f 73/86/73 72/76/72 69/75/69
f 75/81/75 83/88/83 74/80/74
f 73/86/73 79/78/79 78/84/78
f 92/26/92 4/3/4 93/31/93
f 6/7/6 100/9/100 14/92/14
f 17/23/17 12/14/12 6/107/6
f 10/12/10 12/14/12 17/23/17
f 89/108/89 1/118/1 10/12/10
f 34/41/34 94/25/94 97/109/97
f 31/36/31 99/38/99 24/33/24
f 21/96/21 37/43/37 31/36/31
f 35/42/35 37/43/37 21/96/21
f 88/111/88 27/119/27 35/42/35
f 59/70/59 58/65/58 19/28/19
f 23/32/23 64/68/64 59/70/59
f 63/112/63 64/68/64 23/100/23
f 28/98/28 29/116/29 71/77/71
f 74/80/74 83/88/83 84/74/84
f 62/105/62 79/78/79 74/80/74
f 78/84/78 79/78/79 62/105/62
f 98/114/98 68/85/68 78/84/78
f 70/82/70 69/75/69 49/54/49
f 75/81/75 70/82/70 54/62/54
f 51/58/51 102/60/102 44/104/44
f 40/49/40 57/64/57 51/58/51
f 55/63/55 57/64/57 40/49/40
f 82/115/82 46/87/46 55/63/55
f 3/6/3 2/1/2 81/46/81
f 43/45/43 8/4/8 3/6/3
f 7/8/7 8/117/8 43/45/43
f 48/57/48 47/52/47 80/20/80
f 101/55/101 48/57/48 13/17/13
f 14/92/14 102/60/102 52/59/52
f 49/54/49 71/77/71 80/20/80
f 4/3/4 19/28/19 81/46/81
f 82/115/82 84/74/84 83/88/83
f 61/66/61 86/71/86 85/103/85
f 86/71/86 42/51/42 85/103/85
f 87/50/87 86/71/86 65/72/65
f 92/26/92 19/28/19 4/3/4
f 91/110/91 1/118/1 88/111/88
f 93/31/93 4/3/4 5/2/5
f 91/110/91 90/91/90 1/118/1
f 97/93/97 29/116/29 30/97/30
f 97/93/97 96/18/96 29/116/29
f 96/18/96 80/20/80 29/116/29
f 95/24/95 94/25/94 34/41/34
f 98/114/98 24/33/24 99/38/99
f 32/37/32 68/85/68 99/38/99
f 100/9/100 44/104/44 102/60/102
f 52/59/52 13/17/13 14/92/14
f 52/59/52 101/55/101 13/17/13
f 95/24/95 27/119/27 89/108/89
f 91/110/91 22/95/22 90/91/90
f 24/33/24 98/114/98 63/112/63
f 28/113/28 77/83/77 32/37/32
f 38/44/38 60/67/60 85/103/85
f 87/50/87 42/51/42 86/71/86
f 44/104/44 100/9/100 7/8/7
f 46/87/46 82/115/82 83/88/83
f 84/74/84 82/115/82 87/50/87
f 61/66/61 85/103/85 60/67/60
f 89/108/89 88/111/88 1/118/1
f 90/11/90 22/29/22 93/31/93
f 95/24/95 34/41/34 27/119/27
f 27/119/27 88/111/88 89/108/89
f 68/85/68 98/114/98 99/38/99
f 32/37/32 77/83/77 68/85/68
f 14/92/14 100/9/100 102/60/102
