# Blender 4.5.3 LTS
# www.blender.org
o Cube
v -0.128171 -0.128171 0.083840
v -0.128171 -0.150000 0.092572
v -0.150000 -0.128171 0.092572
v -0.128171 -0.139071 0.085007
v -0.139071 -0.128171 0.085007
v -0.138610 -0.138610 0.086140
v -0.139071 -0.147084 0.092572
v -0.128171 -0.147084 0.088212
v -0.138610 -0.144251 0.088396
v -0.147084 -0.128171 0.088212
v -0.147084 -0.139071 0.092572
v -0.144251 -0.138610 0.088396
v -0.128171 -0.150000 0.195108
v -0.128171 -0.128171 0.203840
v -0.150000 -0.128171 0.195108
v -0.128171 -0.147084 0.199468
v -0.139071 -0.147084 0.195108
v -0.138610 -0.144251 0.199284
v -0.139071 -0.128171 0.202674
v -0.128171 -0.139071 0.202674
v -0.138610 -0.138610 0.201540
v -0.147084 -0.139071 0.195108
v -0.147084 -0.128171 0.199468
v -0.144251 -0.138610 0.199284
v -0.128171 0.128171 0.083840
v -0.150000 0.128171 0.092572
v -0.128171 0.150000 0.092572
v -0.139071 0.128171 0.085007
v -0.128171 0.139071 0.085007
v -0.138610 0.138610 0.086140
v -0.147084 0.139071 0.092572
v -0.147084 0.128171 0.088212
v -0.144251 0.138610 0.088396
v -0.128171 0.147084 0.088212
v -0.139071 0.147084 0.092572
v -0.138610 0.144251 0.088396
v -0.128171 0.128171 0.203840
v -0.128171 0.150000 0.195108
v -0.150000 0.128171 0.195108
v -0.128171 0.139071 0.202674
v -0.139071 0.128171 0.202674
v -0.138610 0.138610 0.201540
v -0.139071 0.147084 0.195108
v -0.128171 0.147084 0.199468
v -0.138610 0.144251 0.199284
v -0.147084 0.128171 0.199468
v -0.147084 0.139071 0.195108
v -0.144251 0.138610 0.199284
v 0.128171 -0.128171 0.083840
v 0.150000 -0.128171 0.092572
v 0.128171 -0.150000 0.092572
v 0.139071 -0.128171 0.085007
v 0.128171 -0.139071 0.085007
v 0.138610 -0.138610 0.086140
v 0.147084 -0.139071 0.092572
v 0.147084 -0.128171 0.088212
v 0.144251 -0.138610 0.088396
v 0.128171 -0.147084 0.088212
v 0.139071 -0.147084 0.092572
v 0.138610 -0.144251 0.088396
v 0.128171 -0.128171 0.203840
v 0.128171 -0.150000 0.195108
v 0.150000 -0.128171 0.195108
v 0.128171 -0.139071 0.202674
v 0.139071 -0.128171 0.202674
v 0.138610 -0.138610 0.201540
v 0.139071 -0.147084 0.195108
v 0.128171 -0.147084 0.199468
v 0.138610 -0.144251 0.199284
v 0.147084 -0.128171 0.199468
v 0.147084 -0.139071 0.195108
v 0.144251 -0.138610 0.199284
v 0.128171 0.128171 0.083840
v 0.128171 0.150000 0.092572
v 0.150000 0.128171 0.092572
v 0.128171 0.139071 0.085007
v 0.139071 0.128171 0.085007
v 0.138610 0.138610 0.086140
v 0.139071 0.147084 0.092572
v 0.128171 0.147084 0.088212
v 0.138610 0.144251 0.088396
v 0.147084 0.128171 0.088212
v 0.147084 0.139071 0.092572
v 0.144251 0.138610 0.088396
v 0.128171 0.128171 0.203840
v 0.150000 0.128171 0.195108
v 0.128171 0.150000 0.195108
v 0.139071 0.128171 0.202674
v 0.128171 0.139071 0.202674
v 0.138610 0.138610 0.201540
v 0.147084 0.139071 0.195108
v 0.147084 0.128171 0.199468
v 0.144251 0.138610 0.199284
v 0.128171 0.147084 0.199468
v 0.139071 0.147084 0.195108
v 0.138610 0.144251 0.199284
vn -0.1058 -0.1058 -0.9887
vn -0.1164 -0.3689 -0.9222
vn -0.2171 -0.8114 -0.5427
vn -0.6175 -0.6175 -0.4872
vn -0.8114 -0.2171 -0.5427
vn -0.3689 -0.1164 -0.9222
vn -0.3482 -0.3482 -0.8704
vn -0.2171 -0.8114 0.5427
vn -0.1164 -0.3689 0.9222
vn -0.1058 -0.1058 0.9887
vn -0.3689 -0.1164 0.9222
vn -0.8114 -0.2171 0.5427
vn -0.6175 -0.6175 0.4872
vn -0.3482 -0.3482 0.8704
vn -0.1058 0.1058 -0.9887
vn -0.3689 0.1164 -0.9222
vn -0.8114 0.2171 -0.5427
vn -0.6175 0.6175 -0.4872
vn -0.2171 0.8114 -0.5427
vn -0.1164 0.3689 -0.9222
vn -0.3482 0.3482 -0.8704
vn -0.1058 0.1058 0.9887
vn -0.1164 0.3689 0.9222
vn -0.2171 0.8114 0.5427
vn -0.6175 0.6175 0.4872
vn -0.8114 0.2171 0.5427
vn -0.3689 0.1164 0.9222
vn -0.3482 0.3482 0.8704
vn 0.1058 -0.1058 -0.9887
vn 0.3689 -0.1164 -0.9222
vn 0.8114 -0.2171 -0.5427
vn 0.6175 -0.6175 -0.4872
vn 0.2171 -0.8114 -0.5427
vn 0.1164 -0.3689 -0.9222
vn 0.3482 -0.3482 -0.8704
vn 0.1058 -0.1058 0.9887
vn 0.1164 -0.3689 0.9222
vn 0.2171 -0.8114 0.5427
vn 0.6175 -0.6175 0.4872
vn 0.8114 -0.2171 0.5427
vn 0.3689 -0.1164 0.9222
vn 0.3482 -0.3482 0.8704
vn 0.1058 0.1058 -0.9887
vn 0.1164 0.3689 -0.9222
vn 0.2171 0.8114 -0.5427
vn 0.6175 0.6175 -0.4872
vn 0.8114 0.2171 -0.5427
vn 0.3689 0.1164 -0.9222
vn 0.3482 0.3482 -0.8704
vn 0.1058 0.1058 0.9887
vn 0.3689 0.1164 0.9222
vn 0.8114 0.2171 0.5427
vn 0.6175 0.6175 0.4872
vn 0.2171 0.8114 0.5427
vn 0.1164 0.3689 0.9222
vn 0.3482 0.3482 0.8704
vn -0.1064 -0.0000 -0.9943
vn -0.3714 -0.0000 -0.9285
vn -0.8312 -0.0000 -0.5560
vn -0.2585 -0.9660 -0.0000
vn -0.7071 -0.7071 -0.0000
vn -0.9660 -0.2585 -0.0000
vn -0.1064 -0.0000 0.9943
vn -0.3714 -0.0000 0.9285
vn -0.8312 -0.0000 0.5560
vn -0.2585 0.9660 -0.0000
vn -0.7071 0.7071 -0.0000
vn -0.9660 0.2585 -0.0000
vn -0.0000 0.1064 -0.9943
vn -0.0000 0.3714 -0.9285
vn -0.0000 0.8312 -0.5560
vn -0.0000 0.1064 0.9943
vn -0.0000 0.3714 0.9285
vn -0.0000 0.8312 0.5560
vn 0.9660 0.2585 -0.0000
vn 0.7071 0.7071 -0.0000
vn 0.2585 0.9660 -0.0000
vn 0.1064 -0.0000 -0.9943
vn 0.3714 -0.0000 -0.9285
vn 0.8312 -0.0000 -0.5560
vn 0.1064 -0.0000 0.9943
vn 0.3714 -0.0000 0.9285
vn 0.8312 -0.0000 0.5560
vn 0.2585 -0.9660 -0.0000
vn 0.7071 -0.7071 -0.0000
vn 0.9660 -0.2585 -0.0000
vn -0.0000 -0.1064 -0.9943
vn -0.0000 -0.3714 -0.9285
vn -0.0000 -0.8312 -0.5560
vn -0.0000 -0.1064 0.9943
vn -0.0000 -0.3714 0.9285
vn -0.0000 -0.8312 0.5560
vn -0.0000 -0.0000 -1.0000
vn -1.0000 -0.0000 -0.0000
vn -0.0000 -1.0000 -0.0000
vn -0.0000 -0.0000 1.0000
vn -0.0000 1.0000 -0.0000
vn 1.0000 -0.0000 -0.0000
vn -0.1121 -0.1121 -0.9873
vn -0.2256 -0.7944 -0.5639
vn -0.7945 -0.2256 -0.5639
vn -0.2256 -0.7945 0.5639
vn -0.1121 -0.1121 0.9873
vn -0.7945 -0.2256 0.5639
vn -0.1121 0.1121 -0.9873
vn -0.7945 0.2256 -0.5639
vn -0.2256 0.7945 -0.5639
vn -0.1121 0.1121 0.9873
vn -0.2256 0.7945 0.5639
vn -0.7945 0.2256 0.5639
vn 0.1121 -0.1121 -0.9873
vn 0.7945 -0.2256 -0.5639
vn 0.2256 -0.7945 -0.5639
vn 0.1121 -0.1121 0.9873
vn 0.2256 -0.7945 0.5639
vn 0.7945 -0.2256 0.5639
vn 0.1121 0.1121 -0.9873
vn 0.2256 0.7944 -0.5639
vn 0.7945 0.2256 -0.5639
vn 0.1121 0.1121 0.9873
vn 0.7945 0.2256 0.5639
vn 0.2256 0.7945 0.5639
vt 0.143191 0.740892
vt 0.134108 0.731809
vt 0.143191 0.731809
vt 0.143191 0.750000
vt 0.134492 0.740508
vt 0.393191 1.000000
vt 0.375000 0.981809
vt 0.393191 0.981809
vt 0.393191 0.009107
vt 0.375000 0.000000
vt 0.393191 0.000000
vt 0.375000 0.018191
vt 0.393191 0.018191
vt 0.125000 0.731809
vt 0.125000 0.740508
vt 0.134492 0.750000
vt 0.615892 0.981809
vt 0.606809 1.000000
vt 0.606809 0.981809
vt 0.625000 1.000000
vt 0.615508 1.000000
vt 0.875000 0.731809
vt 0.856809 0.750000
vt 0.856809 0.731809
vt 0.615893 0.018191
vt 0.625000 0.009492
vt 0.625000 0.018191
vt 0.606809 0.009107
vt 0.606809 0.018191
vt 0.606809 0.000000
vt 0.615508 0.009492
vt 0.615508 0.000000
vt 0.134108 0.518191
vt 0.143191 0.509107
vt 0.143191 0.518191
vt 0.125000 0.518191
vt 0.134492 0.509492
vt 0.393191 0.240892
vt 0.375000 0.231809
vt 0.393191 0.231809
vt 0.393191 0.259108
vt 0.375000 0.240508
vt 0.375000 0.268191
vt 0.393191 0.268191
vt 0.143191 0.500000
vt 0.134492 0.500000
vt 0.125000 0.509492
vt 0.856809 0.500000
vt 0.875000 0.518191
vt 0.856809 0.518191
vt 0.615893 0.268191
vt 0.625000 0.244695
vt 0.625000 0.268191
vt 0.606809 0.259108
vt 0.606809 0.268191
vt 0.606809 0.240892
vt 0.615508 0.258387
vt 0.615893 0.231809
vt 0.606809 0.231809
vt 0.615508 0.240508
vt 0.365892 0.731809
vt 0.356809 0.740893
vt 0.356809 0.731809
vt 0.384108 0.731809
vt 0.365508 0.740508
vt 0.393191 0.740892
vt 0.393191 0.731809
vt 0.393191 0.759108
vt 0.383387 0.740508
vt 0.365914 0.759106
vt 0.393191 0.768191
vt 0.371514 0.756006
vt 0.634106 0.759086
vt 0.634107 0.731809
vt 0.643191 0.731809
vt 0.615893 0.768191
vt 0.631006 0.753486
vt 0.606809 0.759108
vt 0.606809 0.768191
vt 0.606809 0.740892
vt 0.615508 0.759492
vt 0.615893 0.731809
vt 0.606809 0.731809
vt 0.615508 0.741613
vt 0.356809 0.509108
vt 0.365892 0.518191
vt 0.356809 0.518191
vt 0.365914 0.490894
vt 0.365508 0.509492
vt 0.393191 0.490892
vt 0.393191 0.481809
vt 0.393191 0.509107
vt 0.371514 0.493994
vt 0.384108 0.518191
vt 0.393191 0.518191
vt 0.383387 0.509492
vt 0.634107 0.518191
vt 0.634106 0.490914
vt 0.643191 0.518191
vt 0.615893 0.518191
vt 0.631006 0.496514
vt 0.606809 0.509107
vt 0.606809 0.518191
vt 0.606809 0.490892
vt 0.615508 0.508387
vt 0.615892 0.481809
vt 0.606809 0.481809
vt 0.615508 0.490508
vt 0.625000 0.231809
vt 0.625000 0.981809
vt 0.375000 0.990508
vt 0.375000 0.009492
vt 0.875000 0.740508
vt 0.375000 0.259492
vt 0.875000 0.509492
s 0
f 4/1/1 5/2/1 1/3/1
f 8/4/2 6/5/2 4/1/2
f 7/6/3 8/7/3 2/8/3
f 11/9/4 9/10/4 7/11/4
f 10/12/5 11/9/5 3/13/5
f 10/14/6 6/5/6 12/15/6
f 6/5/7 9/16/7 12/15/7
f 16/17/8 17/18/8 13/19/8
f 16/17/9 21/20/9 18/21/9
f 19/22/10 20/23/10 14/24/10
f 23/25/11 21/26/11 19/27/11
f 22/28/12 23/25/12 15/29/12
f 17/30/13 24/31/13 22/28/13
f 18/32/14 21/26/14 24/31/14
f 28/33/15 29/34/15 25/35/15
f 32/36/16 30/37/16 28/33/16
f 31/38/17 32/39/17 26/40/17
f 35/41/18 33/42/18 31/38/18
f 34/43/19 35/41/19 27/44/19
f 34/45/20 30/37/20 36/46/20
f 30/37/21 33/47/21 36/46/21
f 40/48/22 41/49/22 37/50/22
f 44/51/23 42/52/23 40/53/23
f 43/54/24 44/51/24 38/55/24
f 47/56/25 45/57/25 43/54/25
f 46/58/26 47/56/26 39/59/26
f 46/58/27 42/52/27 48/60/27
f 42/52/28 45/57/28 48/60/28
f 52/61/29 53/62/29 49/63/29
f 56/64/30 54/65/30 52/61/30
f 55/66/31 56/64/31 50/67/31
f 59/68/32 57/69/32 55/66/32
f 58/70/33 59/68/33 51/71/33
f 58/70/34 54/65/34 60/72/34
f 54/65/35 57/69/35 60/72/35
f 64/73/36 65/74/36 61/75/36
f 68/76/37 66/77/37 64/73/37
f 67/78/38 68/76/38 62/79/38
f 71/80/39 69/81/39 67/78/39
f 70/82/40 71/80/40 63/83/40
f 70/82/41 66/77/41 72/84/41
f 66/77/42 69/81/42 72/84/42
f 76/85/43 77/86/43 73/87/43
f 80/88/44 78/89/44 76/85/44
f 79/90/45 80/88/45 74/91/45
f 83/92/46 81/93/46 79/90/46
f 82/94/47 83/92/47 75/95/47
f 82/94/48 78/89/48 84/96/48
f 78/89/49 81/93/49 84/96/49
f 88/97/50 89/98/50 85/99/50
f 92/100/51 90/101/51 88/97/51
f 91/102/52 92/100/52 86/103/52
f 95/104/53 93/105/53 91/102/53
f 94/106/54 95/104/54 87/107/54
f 94/106/55 90/101/55 96/108/55
f 90/101/56 93/105/56 96/108/56
f 1/3/57 28/33/57 25/35/57
f 5/2/58 32/36/58 28/33/58
f 10/12/59 26/40/59 32/39/59
f 13/19/60 7/6/60 2/8/60
f 17/30/61 11/9/61 7/11/61
f 22/28/62 3/13/62 11/9/62
f 37/50/63 19/22/63 14/24/63
f 41/109/64 23/25/64 19/27/64
f 46/58/65 15/29/65 23/25/65
f 27/44/66 43/54/66 38/55/66
f 35/41/67 47/56/67 43/54/67
f 31/38/68 39/59/68 47/56/68
f 25/35/69 76/85/69 73/87/69
f 29/34/70 80/88/70 76/85/70
f 34/43/71 74/91/71 80/88/71
f 85/99/72 40/48/72 37/50/72
f 89/98/73 44/51/73 40/53/73
f 94/106/74 38/55/74 44/51/74
f 75/95/75 91/102/75 86/103/75
f 83/92/76 95/104/76 91/102/76
f 79/90/77 87/107/77 95/104/77
f 73/87/78 52/61/78 49/63/78
f 77/86/79 56/64/79 52/61/79
f 82/94/80 50/67/80 56/64/80
f 61/75/81 88/97/81 85/99/81
f 65/74/82 92/100/82 88/97/82
f 70/82/83 86/103/83 92/100/83
f 51/71/84 67/78/84 62/79/84
f 59/68/85 71/80/85 67/78/85
f 55/66/86 63/83/86 71/80/86
f 49/63/87 4/1/87 1/3/87
f 53/62/88 8/4/88 4/1/88
f 58/70/89 2/8/89 8/7/89
f 14/24/90 64/73/90 61/75/90
f 20/110/91 68/76/91 64/73/91
f 16/17/92 62/79/92 68/76/92
f 73/87/93 1/3/93 25/35/93
f 15/29/94 26/40/94 3/13/94
f 62/79/95 2/8/95 51/71/95
f 37/50/96 61/75/96 85/99/96
f 38/55/97 74/91/97 27/44/97
f 86/103/98 50/67/98 75/95/98
f 4/1/99 6/5/99 5/2/99
f 8/4/2 9/16/2 6/5/2
f 7/6/100 9/111/100 8/7/100
f 11/9/4 12/112/4 9/10/4
f 10/12/101 12/112/101 11/9/101
f 10/14/6 5/2/6 6/5/6
f 16/17/102 18/21/102 17/18/102
f 16/17/9 20/110/9 21/20/9
f 19/22/103 21/113/103 20/23/103
f 23/25/11 24/31/11 21/26/11
f 22/28/104 24/31/104 23/25/104
f 17/30/13 18/32/13 24/31/13
f 28/33/105 30/37/105 29/34/105
f 32/36/16 33/47/16 30/37/16
f 31/38/106 33/42/106 32/39/106
f 35/41/18 36/114/18 33/42/18
f 34/43/107 36/114/107 35/41/107
f 34/45/20 29/34/20 30/37/20
f 40/48/108 42/115/108 41/49/108
f 44/51/23 45/57/23 42/52/23
f 43/54/109 45/57/109 44/51/109
f 47/56/25 48/60/25 45/57/25
f 46/58/110 48/60/110 47/56/110
f 46/58/27 41/109/27 42/52/27
f 52/61/111 54/65/111 53/62/111
f 56/64/30 57/69/30 54/65/30
f 55/66/112 57/69/112 56/64/112
f 59/68/32 60/72/32 57/69/32
f 58/70/113 60/72/113 59/68/113
f 58/70/34 53/62/34 54/65/34
f 64/73/114 66/77/114 65/74/114
f 68/76/37 69/81/37 66/77/37
f 67/78/115 69/81/115 68/76/115
f 71/80/39 72/84/39 69/81/39
f 70/82/116 72/84/116 71/80/116
f 70/82/41 65/74/41 66/77/41
f 76/85/117 78/89/117 77/86/117
f 80/88/44 81/93/44 78/89/44
f 79/90/118 81/93/118 80/88/118
f 83/92/46 84/96/46 81/93/46
f 82/94/119 84/96/119 83/92/119
f 82/94/48 77/86/48 78/89/48
f 88/97/120 90/101/120 89/98/120
f 92/100/51 93/105/51 90/101/51
f 91/102/121 93/105/121 92/100/121
f 95/104/53 96/108/53 93/105/53
f 94/106/122 96/108/122 95/104/122
f 94/106/55 89/98/55 90/101/55
f 1/3/57 5/2/57 28/33/57
f 5/2/58 10/14/58 32/36/58
f 10/12/59 3/13/59 26/40/59
f 13/19/60 17/18/60 7/6/60
f 17/30/61 22/28/61 11/9/61
f 22/28/62 15/29/62 3/13/62
f 37/50/63 41/49/63 19/22/63
f 41/109/64 46/58/64 23/25/64
f 46/58/65 39/59/65 15/29/65
f 27/44/66 35/41/66 43/54/66
f 35/41/67 31/38/67 47/56/67
f 31/38/68 26/40/68 39/59/68
f 25/35/69 29/34/69 76/85/69
f 29/34/70 34/45/70 80/88/70
f 34/43/71 27/44/71 74/91/71
f 85/99/72 89/98/72 40/48/72
f 89/98/73 94/106/73 44/51/73
f 94/106/74 87/107/74 38/55/74
f 75/95/75 83/92/75 91/102/75
f 83/92/76 79/90/76 95/104/76
f 79/90/77 74/91/77 87/107/77
f 73/87/78 77/86/78 52/61/78
f 77/86/79 82/94/79 56/64/79
f 82/94/80 75/95/80 50/67/80
f 61/75/81 65/74/81 88/97/81
f 65/74/82 70/82/82 92/100/82
f 70/82/83 63/83/83 86/103/83
f 51/71/84 59/68/84 67/78/84
f 59/68/85 55/66/85 71/80/85
f 55/66/86 50/67/86 63/83/86
f 49/63/87 53/62/87 4/1/87
f 53/62/88 58/70/88 8/4/88
f 58/70/89 51/71/89 2/8/89
f 14/24/90 20/23/90 64/73/90
f 20/110/91 16/17/91 68/76/91
f 16/17/92 13/19/92 62/79/92
f 73/87/93 49/63/93 1/3/93
f 15/29/94 39/59/94 26/40/94
f 62/79/95 13/19/95 2/8/95
f 37/50/96 14/24/96 61/75/96
f 38/55/97 87/107/97 74/91/97
f 86/103/98 63/83/98 50/67/98
