# Blender 4.5.3 LTS
# www.blender.org
o BrainCoralBrown
v 0.096589 -0.091547 0.000707
v 0.056496 -0.113482 0.011967
v 0.058126 -0.137209 -0.023770
v -0.000348 -0.125759 0.017001
v -0.000747 -0.150491 -0.020859
v -0.001003 -0.153976 -0.065679
v 0.060607 -0.141355 -0.065679
v 0.110686 -0.103425 -0.026580
v 0.115116 -0.108052 -0.065623
v -0.054103 -0.114284 0.011623
v -0.057056 -0.138224 -0.023835
v -0.091098 -0.093437 0.002434
v -0.105862 -0.105555 -0.024491
v -0.112248 -0.110041 -0.063970
v -0.060862 -0.142496 -0.065679
v -0.056664 -0.130359 -0.107673
v -0.001092 -0.140490 -0.110931
v -0.102635 -0.101170 -0.103456
v -0.085501 -0.086287 -0.132954
v -0.051728 -0.102806 -0.146516
v -0.000942 -0.111364 -0.153171
v 0.055568 -0.129374 -0.107673
v 0.103970 -0.099543 -0.104420
v 0.051355 -0.102213 -0.146516
v 0.086572 -0.085200 -0.133383
v 0.055420 -0.057136 -0.173936
v 0.100501 -0.050407 -0.146195
v 0.000560 -0.062579 -0.184576
v 0.001500 0.001836 -0.194253
v 0.059577 0.001836 -0.181919
v 0.107248 0.002672 -0.151629
v -0.053598 -0.057350 -0.173931
v -0.098885 -0.051168 -0.145176
v -0.106216 0.001288 -0.150261
v -0.056387 0.001836 -0.181794
v -0.054488 0.060577 -0.166415
v 0.000552 0.066461 -0.174859
v -0.101707 0.052113 -0.141738
v -0.089796 0.087264 -0.126785
v -0.054423 0.106223 -0.135910
v -0.000995 0.115880 -0.139741
v 0.056351 0.060930 -0.166582
v 0.101328 0.055499 -0.142612
v 0.053814 0.106531 -0.135925
v 0.088756 0.090016 -0.127107
v 0.059141 0.132476 -0.099082
v 0.106021 0.104304 -0.100614
v -0.001193 0.143230 -0.099565
v -0.001193 0.152122 -0.058371
v 0.063858 0.141082 -0.060497
v 0.115567 0.111606 -0.063928
v -0.061199 0.131823 -0.099143
v -0.108849 0.099886 -0.099905
v -0.119331 0.106271 -0.062518
v -0.066243 0.140254 -0.060532
v -0.061733 0.131565 -0.021754
v -0.001193 0.143066 -0.017921
v -0.112106 0.099828 -0.024192
v -0.095653 0.086759 0.001933
v -0.057225 0.105347 0.011160
v -0.001193 0.115139 0.016572
v 0.059348 0.132476 -0.021688
v 0.108545 0.104487 -0.026060
v 0.054838 0.106209 0.011484
v 0.092925 0.090051 0.000358
v 0.060130 0.060408 0.033393
v 0.110970 0.055658 0.012672
v -0.001193 0.065723 0.039103
v -0.000905 -0.002570 0.048689
v 0.067657 -0.000583 0.042347
v 0.122648 0.002511 0.019238
v -0.061733 0.059364 0.033439
v -0.112267 0.051880 0.016294
v -0.119751 0.000872 0.024255
v -0.066113 -0.000910 0.042841
v -0.060256 -0.065434 0.034704
v -0.000189 -0.074033 0.040799
v -0.109327 -0.054780 0.016769
v 0.063644 -0.064791 0.034673
v 0.115257 -0.053136 0.013013
v -0.137370 -0.055328 -0.016956
v -0.150372 0.000763 -0.011459
v -0.156916 0.000397 -0.057673
v -0.143937 -0.057979 -0.059979
v -0.141774 0.053331 -0.017061
v -0.149255 0.055905 -0.059970
v -0.134737 0.052658 -0.103534
v -0.140839 0.000522 -0.106090
v -0.130025 -0.053857 -0.104162
v 0.138459 0.059533 -0.022909
v 0.151299 0.003644 -0.019435
v 0.155696 0.004103 -0.065165
v 0.144482 0.063379 -0.065232
v 0.142360 -0.053450 -0.022965
v 0.146792 -0.056274 -0.065396
v 0.131409 -0.052564 -0.107648
v 0.139595 0.003764 -0.110773
v 0.131107 0.059108 -0.106676
vn 0.5399 -0.5437 0.6426
vn 0.2980 -0.6047 0.7386
vn 0.3589 -0.8792 0.3135
vn 0.6722 -0.6738 0.3069
vn 0.0040 -0.6401 0.7683
vn 0.0075 -0.9444 0.3288
vn 0.0086 -0.9950 -0.1000
vn 0.3708 -0.9240 -0.0931
vn 0.7045 -0.7034 -0.0937
vn -0.2928 -0.6039 0.7413
vn -0.3563 -0.8773 0.3215
vn -0.5188 -0.5468 0.6571
vn -0.6669 -0.6686 0.3289
vn -0.7193 -0.6910 -0.0717
vn -0.3726 -0.9239 -0.0866
vn -0.3396 -0.8377 -0.4276
vn 0.0069 -0.8990 -0.4379
vn -0.6644 -0.6174 -0.4211
vn -0.5751 -0.5166 -0.6343
vn -0.3237 -0.6324 -0.7038
vn 0.0021 -0.6840 -0.7295
vn 0.3355 -0.8400 -0.4265
vn 0.6398 -0.6355 -0.4322
vn 0.3181 -0.6422 -0.6974
vn 0.5561 -0.5379 -0.6336
vn 0.3474 -0.3087 -0.8854
vn 0.6376 -0.2726 -0.7206
vn 0.0010 -0.3338 -0.9426
vn 0.0009 0.0672 -0.9977
vn 0.3530 0.0525 -0.9341
vn 0.6537 0.0234 -0.7564
vn -0.3525 -0.2974 -0.8873
vn -0.6461 -0.2662 -0.7153
vn -0.6575 0.0102 -0.7534
vn -0.3563 0.0531 -0.9329
vn -0.3165 0.3749 -0.8714
vn -0.0014 0.4201 -0.9075
vn -0.6136 0.2906 -0.7342
vn -0.5306 0.5322 -0.6597
vn -0.2856 0.6513 -0.7030
vn -0.0040 0.6996 -0.7145
vn 0.3068 0.3830 -0.8713
vn 0.6049 0.3099 -0.7335
vn 0.2645 0.6615 -0.7017
vn 0.5049 0.5569 -0.6595
vn 0.2934 0.8649 -0.4073
vn 0.6238 0.6532 -0.4291
vn -0.0047 0.9145 -0.4045
vn -0.0063 1.0000 0.0065
vn 0.3354 0.9421 -0.0013
vn 0.6972 0.7161 -0.0331
vn -0.3246 0.8543 -0.4060
vn -0.6519 0.6252 -0.4291
vn -0.7195 0.6933 -0.0391
vn -0.3678 0.9299 -0.0035
vn -0.3338 0.8458 0.4162
vn -0.0067 0.8988 0.4383
vn -0.6454 0.6613 0.3823
vn -0.4780 0.5458 0.6882
vn -0.2616 0.5870 0.7662
vn -0.0057 0.6081 0.7938
vn 0.3111 0.8519 0.4212
vn 0.6364 0.6672 0.3871
vn 0.2537 0.5853 0.7701
vn 0.4880 0.5410 0.6849
vn 0.2248 0.2747 0.9349
vn 0.5527 0.3078 0.7744
vn -0.0015 0.2765 0.9610
vn 0.0017 0.0086 1.0000
vn 0.2364 0.0134 0.9716
vn 0.5971 0.0253 0.8018
vn -0.2124 0.2795 0.9364
vn -0.5186 0.3058 0.7984
vn -0.5498 -0.0080 0.8353
vn -0.2110 0.0060 0.9775
vn -0.2324 -0.2633 0.9363
vn 0.0022 -0.2652 0.9642
vn -0.5394 -0.3033 0.7855
vn 0.2502 -0.2552 0.9340
vn 0.5854 -0.2723 0.7636
vn -0.8491 -0.3669 0.3799
vn -0.9072 -0.0330 0.4194
vn -0.9956 -0.0436 -0.0827
vn -0.9270 -0.3673 -0.0764
vn -0.8508 0.3406 0.4002
vn -0.9417 0.3286 -0.0725
vn -0.8368 0.2798 -0.4707
vn -0.8776 -0.0304 -0.4785
vn -0.8376 -0.3080 -0.4511
vn 0.8574 0.3533 0.3744
vn 0.9278 0.0291 0.3720
vn 0.9933 0.0199 -0.1143
vn 0.9321 0.3529 -0.0819
vn 0.8830 -0.3218 0.3416
vn 0.9349 -0.3362 -0.1137
vn 0.8306 -0.2959 -0.4718
vn 0.8719 0.0109 -0.4896
vn 0.8266 0.3080 -0.4710
vt 0.960877 0.155328
vt 0.935050 0.170208
vt 0.944817 0.194956
vt 0.977486 0.166195
vt 0.900924 0.181699
vt 0.904751 0.208036
vt 0.031847 0.224021
vt 0.071871 0.264632
vt 0.085549 0.243941
vt 0.051966 0.209187
vt 0.009852 0.167514
vt 0.034336 0.163667
vt 0.866757 0.181050
vt 0.864485 0.207560
vt 0.839954 0.174419
vt 0.827559 0.190018
vt 0.123069 0.284593
vt 0.180685 0.284586
vt 0.175508 0.259990
vt 0.129221 0.260492
vt 0.133779 0.236224
vt 0.100435 0.220968
vt 0.169536 0.237658
vt 0.164550 0.218423
vt 0.142019 0.211766
vt 0.115727 0.197498
vt 0.072725 0.195557
vt 0.057092 0.161301
vt 0.091671 0.178033
vt 0.076552 0.158886
vt 0.107498 0.154122
vt 0.084634 0.136783
vt 0.131409 0.172414
vt 0.149991 0.144007
vt 0.124006 0.126589
vt 0.099893 0.109564
vt 0.157050 0.187465
vt 0.181729 0.202665
vt 0.201451 0.179136
vt 0.175870 0.161564
vt 0.194214 0.134494
vt 0.170171 0.115127
vt 0.217064 0.153568
vt 0.226057 0.131727
vt 0.212573 0.111002
vt 0.188831 0.089258
vt 0.143063 0.099622
vt 0.119127 0.084719
vt 0.159387 0.074695
vt 0.136369 0.068601
vt 0.168035 0.050628
vt 0.131991 0.050290
vt 0.204313 0.067589
vt 0.218786 0.047168
vt 0.172219 0.028527
vt 0.127688 0.030136
vt 0.232144 0.095864
vt 0.244988 0.130912
vt 0.266898 0.129547
vt 0.251940 0.084805
vt 0.271195 0.071234
vt 0.232345 0.028468
vt 0.291161 0.125652
vt 0.835227 0.019253
vt 0.803740 0.045623
vt 0.820629 0.056791
vt 0.845113 0.043637
vt 0.876146 0.007308
vt 0.879456 0.034032
vt 0.179443 0.005921
vt 0.123820 0.006034
vt 0.918435 0.008213
vt 0.915079 0.033625
vt 0.954826 0.022142
vt 0.941979 0.038102
vt 0.920695 0.063711
vt 0.953640 0.060907
vt 0.883676 0.065897
vt 0.889368 0.106397
vt 0.929480 0.099653
vt 0.964072 0.093002
vt 0.847955 0.074399
vt 0.816559 0.082544
vt 0.817934 0.114750
vt 0.851078 0.111018
vt 0.859515 0.149218
vt 0.895903 0.148469
vt 0.827571 0.148623
vt 0.933034 0.137985
vt 0.965552 0.127679
vt 0.801653 0.157229
vt 0.789851 0.118388
vt 0.234657 0.263339
vt 0.272636 0.225812
vt 0.250475 0.211603
vt 0.218367 0.243279
vt 0.789847 0.081183
vt 0.291013 0.179731
vt 0.266345 0.172863
vt 0.241554 0.165674
vt 0.227014 0.196449
vt 0.202279 0.222718
vt 0.979415 0.050247
vt 0.991987 0.088002
vt 0.074196 0.024609
vt 0.034249 0.060609
vt 0.054784 0.075741
vt 0.088654 0.045377
vt 0.993437 0.128211
vt 0.011882 0.109933
vt 0.035969 0.117899
vt 0.059375 0.125144
vt 0.077391 0.092686
vt 0.101919 0.066055
s 1
f 1/1/1 2/2/2 3/3/3
f 1/1/1 3/3/3 8/4/4
f 2/2/2 4/5/5 5/6/6
f 2/2/2 5/6/6 3/3/3
f 3/7/3 5/8/6 6/9/7
f 3/7/3 6/9/7 7/10/8
f 8/11/4 3/7/3 7/10/8
f 8/11/4 7/10/8 9/12/9
f 4/5/5 10/13/10 11/14/11
f 4/5/5 11/14/11 5/6/6
f 10/13/10 12/15/12 13/16/13
f 10/13/10 13/16/13 11/14/11
f 11/17/11 13/18/13 14/19/14
f 11/17/11 14/19/14 15/20/15
f 5/8/6 11/17/11 15/20/15
f 5/8/6 15/20/15 6/9/7
f 6/9/7 15/20/15 16/21/16
f 6/9/7 16/21/16 17/22/17
f 15/20/15 14/19/14 18/23/18
f 15/20/15 18/23/18 16/21/16
f 16/21/16 18/23/18 19/24/19
f 16/21/16 19/24/19 20/25/20
f 17/22/17 16/21/16 20/25/20
f 17/22/17 20/25/20 21/26/21
f 9/12/9 7/10/8 22/27/22
f 9/12/9 22/27/22 23/28/23
f 7/10/8 6/9/7 17/22/17
f 7/10/8 17/22/17 22/27/22
f 22/27/22 17/22/17 21/26/21
f 22/27/22 21/26/21 24/29/24
f 23/28/23 22/27/22 24/29/24
f 23/28/23 24/29/24 25/30/25
f 25/30/25 24/29/24 26/31/26
f 25/30/25 26/31/26 27/32/27
f 24/29/24 21/26/21 28/33/28
f 24/29/24 28/33/28 26/31/26
f 26/31/26 28/33/28 29/34/29
f 26/31/26 29/34/29 30/35/30
f 27/32/27 26/31/26 30/35/30
f 27/32/27 30/35/30 31/36/31
f 21/26/21 20/25/20 32/37/32
f 21/26/21 32/37/32 28/33/28
f 20/25/20 19/24/19 33/38/33
f 20/25/20 33/38/33 32/37/32
f 32/37/32 33/38/33 34/39/34
f 32/37/32 34/39/34 35/40/35
f 28/33/28 32/37/32 35/40/35
f 28/33/28 35/40/35 29/34/29
f 29/34/29 35/40/35 36/41/36
f 29/34/29 36/41/36 37/42/37
f 35/40/35 34/39/34 38/43/38
f 35/40/35 38/43/38 36/41/36
f 36/41/36 38/43/38 39/44/39
f 36/41/36 39/44/39 40/45/40
f 37/42/37 36/41/36 40/45/40
f 37/42/37 40/45/40 41/46/41
f 31/36/31 30/35/30 42/47/42
f 31/36/31 42/47/42 43/48/43
f 30/35/30 29/34/29 37/42/37
f 30/35/30 37/42/37 42/47/42
f 42/47/42 37/42/37 41/46/41
f 42/47/42 41/46/41 44/49/44
f 43/48/43 42/47/42 44/49/44
f 43/48/43 44/49/44 45/50/45
f 45/50/45 44/49/44 46/51/46
f 45/50/45 46/51/46 47/52/47
f 44/49/44 41/46/41 48/53/48
f 44/49/44 48/53/48 46/51/46
f 46/51/46 48/53/48 49/54/49
f 46/51/46 49/54/49 50/55/50
f 47/52/47 46/51/46 50/55/50
f 47/52/47 50/55/50 51/56/51
f 41/46/41 40/45/40 52/57/52
f 41/46/41 52/57/52 48/53/48
f 40/45/40 39/44/39 53/58/53
f 40/45/40 53/58/53 52/57/52
f 52/57/52 53/58/53 54/59/54
f 52/57/52 54/59/54 55/60/55
f 48/53/48 52/57/52 55/60/55
f 48/53/48 55/60/55 49/54/49
f 49/54/49 55/60/55 56/61/56
f 49/54/49 56/61/56 57/62/57
f 55/60/55 54/59/54 58/63/58
f 55/60/55 58/63/58 56/61/56
f 56/64/56 58/65/58 59/66/59
f 56/64/56 59/66/59 60/67/60
f 57/68/57 56/64/56 60/67/60
f 57/68/57 60/67/60 61/69/61
f 51/56/51 50/55/50 62/70/62
f 51/56/51 62/70/62 63/71/63
f 50/55/50 49/54/49 57/62/57
f 50/55/50 57/62/57 62/70/62
f 62/72/62 57/68/57 61/69/61
f 62/72/62 61/69/61 64/73/64
f 63/74/63 62/72/62 64/73/64
f 63/74/63 64/73/64 65/75/65
f 65/75/65 64/73/64 66/76/66
f 65/75/65 66/76/66 67/77/67
f 64/73/64 61/69/61 68/78/68
f 64/73/64 68/78/68 66/76/66
f 66/76/66 68/78/68 69/79/69
f 66/76/66 69/79/69 70/80/70
f 67/77/67 66/76/66 70/80/70
f 67/77/67 70/80/70 71/81/71
f 61/69/61 60/67/60 72/82/72
f 61/69/61 72/82/72 68/78/68
f 60/67/60 59/66/59 73/83/73
f 60/67/60 73/83/73 72/82/72
f 72/82/72 73/83/73 74/84/74
f 72/82/72 74/84/74 75/85/75
f 68/78/68 72/82/72 75/85/75
f 68/78/68 75/85/75 69/79/69
f 69/79/69 75/85/75 76/86/76
f 69/79/69 76/86/76 77/87/77
f 75/85/75 74/84/74 78/88/78
f 75/85/75 78/88/78 76/86/76
f 76/86/76 78/88/78 12/15/12
f 76/86/76 12/15/12 10/13/10
f 77/87/77 76/86/76 10/13/10
f 77/87/77 10/13/10 4/5/5
f 71/81/71 70/80/70 79/89/79
f 71/81/71 79/89/79 80/90/80
f 70/80/70 69/79/69 77/87/77
f 70/80/70 77/87/77 79/89/79
f 79/89/79 77/87/77 4/5/5
f 79/89/79 4/5/5 2/2/2
f 80/90/80 79/89/79 2/2/2
f 80/90/80 2/2/2 1/1/1
f 12/15/12 78/88/78 81/91/81
f 12/15/12 81/91/81 13/16/13
f 78/88/78 74/84/74 82/92/82
f 78/88/78 82/92/82 81/91/81
f 81/93/81 82/94/82 83/95/83
f 81/93/81 83/95/83 84/96/84
f 13/18/13 81/93/81 84/96/84
f 13/18/13 84/96/84 14/19/14
f 74/84/74 73/83/73 85/97/85
f 74/84/74 85/97/85 82/92/82
f 73/83/73 59/66/59 58/65/58
f 73/83/73 58/65/58 85/97/85
f 85/98/85 58/63/58 54/59/54
f 85/98/85 54/59/54 86/99/86
f 82/94/82 85/98/85 86/99/86
f 82/94/82 86/99/86 83/95/83
f 83/95/83 86/99/86 87/100/87
f 83/95/83 87/100/87 88/101/88
f 86/99/86 54/59/54 53/58/53
f 86/99/86 53/58/53 87/100/87
f 87/100/87 53/58/53 39/44/39
f 87/100/87 39/44/39 38/43/38
f 88/101/88 87/100/87 38/43/38
f 88/101/88 38/43/38 34/39/34
f 14/19/14 84/96/84 89/102/89
f 14/19/14 89/102/89 18/23/18
f 84/96/84 83/95/83 88/101/88
f 84/96/84 88/101/88 89/102/89
f 89/102/89 88/101/88 34/39/34
f 89/102/89 34/39/34 33/38/33
f 18/23/18 89/102/89 33/38/33
f 18/23/18 33/38/33 19/24/19
f 65/75/65 67/77/67 90/103/90
f 65/75/65 90/103/90 63/74/63
f 67/77/67 71/81/71 91/104/91
f 67/77/67 91/104/91 90/103/90
f 90/105/90 91/106/91 92/107/92
f 90/105/90 92/107/92 93/108/93
f 63/71/63 90/105/90 93/108/93
f 63/71/63 93/108/93 51/56/51
f 71/81/71 80/90/80 94/109/94
f 71/81/71 94/109/94 91/104/91
f 80/90/80 1/1/1 8/4/4
f 80/90/80 8/4/4 94/109/94
f 94/110/94 8/11/4 9/12/9
f 94/110/94 9/12/9 95/111/95
f 91/106/91 94/110/94 95/111/95
f 91/106/91 95/111/95 92/107/92
f 92/107/92 95/111/95 96/112/96
f 92/107/92 96/112/96 97/113/97
f 95/111/95 9/12/9 23/28/23
f 95/111/95 23/28/23 96/112/96
f 96/112/96 23/28/23 25/30/25
f 96/112/96 25/30/25 27/32/27
f 97/113/97 96/112/96 27/32/27
f 97/113/97 27/32/27 31/36/31
f 51/56/51 93/108/93 98/114/98
f 51/56/51 98/114/98 47/52/47
f 93/108/93 92/107/92 97/113/97
f 93/108/93 97/113/97 98/114/98
f 98/114/98 97/113/97 31/36/31
f 98/114/98 31/36/31 43/48/43
f 47/52/47 98/114/98 43/48/43
f 47/52/47 43/48/43 45/50/45
