# Blender 4.5.3 LTS
# www.blender.org
o Cylinder.001
v 0.000000 0.176906 -1.053948
v 0.000000 0.030000 -0.725635
v -0.017321 0.190000 -1.041948
v 0.017321 0.190000 -1.041948
v -0.012247 0.185524 -1.050433
v 0.005853 0.029424 -0.725635
v 0.000000 0.190893 -1.048876
v 0.011481 0.027716 -0.725635
v 0.000000 0.194783 -1.041948
v 0.012247 0.185524 -1.050433
v 0.016667 0.024944 -0.725635
v 0.000000 0.176906 -0.813948
v 0.017321 0.190000 -0.825948
v 0.021213 0.021213 -0.725635
v -0.017321 0.190000 -0.825948
v 0.012247 0.185524 -0.817463
v 0.024944 0.016667 -0.725635
v 0.000000 0.190893 -0.819020
v 0.000000 0.194783 -0.825948
v -0.012247 0.185524 -0.817463
v 0.027716 0.011481 -0.725635
v 0.153205 0.088453 -1.053948
v 0.029424 0.005853 -0.725635
v 0.155885 0.110000 -1.041948
v 0.173205 0.080000 -1.041948
v 0.030000 0.000000 -0.725635
v 0.154545 0.103369 -1.050433
v 0.165318 0.095447 -1.048876
v 0.029424 -0.005853 -0.725635
v 0.168687 0.097391 -1.041948
v 0.166792 0.082155 -1.050433
v 0.027716 -0.011481 -0.725635
v 0.153205 0.088453 -0.813948
v 0.173205 0.080000 -0.825948
v 0.155885 0.110000 -0.825948
v 0.024944 -0.016667 -0.725635
v 0.166792 0.082155 -0.817463
v 0.021213 -0.021213 -0.725635
v 0.165318 0.095447 -0.819020
v 0.168687 0.097391 -0.825948
v 0.016667 -0.024944 -0.725635
v 0.154545 0.103369 -0.817463
v 0.153205 -0.088453 -1.053948
v 0.011481 -0.027716 -0.725635
v 0.173205 -0.080000 -1.041948
v 0.155885 -0.110000 -1.041948
v 0.005853 -0.029424 -0.725635
v 0.166792 -0.082155 -1.050433
v 0.165318 -0.095447 -1.048876
v 0.000000 -0.030000 -0.725635
v 0.168687 -0.097391 -1.041948
v 0.154545 -0.103369 -1.050433
v -0.005853 -0.029424 -0.725635
v 0.153205 -0.088453 -0.813948
v 0.155885 -0.110000 -0.825948
v 0.173205 -0.080000 -0.825948
v -0.011481 -0.027716 -0.725635
v 0.154545 -0.103369 -0.817463
v 0.165318 -0.095447 -0.819020
v -0.016667 -0.024944 -0.725635
v 0.168687 -0.097391 -0.825948
v 0.166792 -0.082155 -0.817463
v -0.021213 -0.021213 -0.725635
v 0.000000 -0.176906 -1.053948
v 0.017321 -0.190000 -1.041948
v -0.024944 -0.016667 -0.725635
v -0.017321 -0.190000 -1.041948
v -0.027716 -0.011481 -0.725635
v 0.012247 -0.185524 -1.050433
v 0.000000 -0.190893 -1.048876
v 0.000000 -0.194783 -1.041948
v -0.029424 -0.005853 -0.725635
v -0.012247 -0.185524 -1.050433
v 0.000000 -0.176906 -0.813948
v -0.030000 0.000000 -0.725635
v -0.017321 -0.190000 -0.825948
v 0.017321 -0.190000 -0.825948
v -0.029424 0.005853 -0.725635
v -0.012247 -0.185524 -0.817463
v -0.027716 0.011481 -0.725635
v 0.000000 -0.190893 -0.819020
v 0.000000 -0.194783 -0.825948
v 0.012247 -0.185524 -0.817463
v -0.024944 0.016667 -0.725635
v -0.153205 -0.088453 -1.053948
v -0.155885 -0.110000 -1.041948
v -0.021213 0.021213 -0.725635
v -0.173205 -0.080000 -1.041948
v -0.016667 0.024944 -0.725635
v -0.154545 -0.103369 -1.050433
v -0.165318 -0.095447 -1.048876
v -0.011481 0.027716 -0.725635
v -0.168687 -0.097391 -1.041948
v -0.166792 -0.082155 -1.050433
v -0.153205 -0.088453 -0.813948
v -0.005853 0.029424 -0.725635
v -0.173205 -0.080000 -0.825948
v -0.155885 -0.110000 -0.825948
v -0.166792 -0.082155 -0.817463
v -0.165318 -0.095447 -0.819020
v -0.168687 -0.097391 -0.825948
v -0.154545 -0.103369 -0.817463
v -0.153205 0.088453 -1.053948
v -0.173205 0.080000 -1.041948
v -0.155885 0.110000 -1.041948
v -0.166792 0.082155 -1.050433
v -0.165318 0.095447 -1.048876
v -0.168687 0.097391 -1.041948
v -0.154545 0.103369 -1.050433
v -0.153205 0.088453 -0.813948
v -0.155885 0.110000 -0.825948
v -0.173205 0.080000 -0.825948
v -0.154545 0.103369 -0.817463
v -0.165318 0.095447 -0.819020
v -0.168687 0.097391 -0.825948
v -0.166792 0.082155 -0.817463
v 0.000000 0.030000 -0.813948
v 0.005853 0.029424 -0.813948
v 0.011481 0.027716 -0.813948
v 0.016667 0.024944 -0.813948
v 0.021213 0.021213 -0.813948
v 0.024944 0.016667 -0.813948
v 0.027716 0.011481 -0.813948
v 0.029424 0.005853 -0.813948
v 0.030000 0.000000 -0.813948
v 0.029424 -0.005853 -0.813948
v 0.027716 -0.011481 -0.813948
v 0.024944 -0.016667 -0.813948
v 0.021213 -0.021213 -0.813948
v 0.016667 -0.024944 -0.813948
v 0.011481 -0.027716 -0.813948
v 0.005853 -0.029424 -0.813948
v 0.000000 -0.030000 -0.813948
v -0.005853 -0.029424 -0.813948
v -0.011481 -0.027716 -0.813948
v -0.016667 -0.024944 -0.813948
v -0.021213 -0.021213 -0.813948
v -0.024944 -0.016667 -0.813948
v -0.027716 -0.011481 -0.813948
v -0.029424 -0.005853 -0.813948
v -0.030000 0.000000 -0.813948
v -0.029424 0.005853 -0.813948
v -0.027716 0.011481 -0.813948
v -0.024944 0.016667 -0.813948
v -0.021213 0.021213 -0.813948
v -0.016667 0.024944 -0.813948
v -0.011481 0.027716 -0.813948
v -0.005853 0.029424 -0.813948
vn 0.0979 0.9952 -0.0000
vn 0.2904 0.9569 -0.0000
vn 0.4714 0.8819 -0.0000
vn 0.6344 0.7730 -0.0000
vn 0.7730 0.6344 -0.0000
vn 0.8819 0.4714 -0.0000
vn 0.9569 0.2904 -0.0000
vn 0.9952 0.0979 -0.0000
vn 0.9952 -0.0979 -0.0000
vn 0.9569 -0.2904 -0.0000
vn 0.8819 -0.4714 -0.0000
vn 0.7730 -0.6344 -0.0000
vn 0.6344 -0.7730 -0.0000
vn 0.4714 -0.8819 -0.0000
vn 0.2904 -0.9569 -0.0000
vn 0.0979 -0.9952 -0.0000
vn -0.0979 -0.9952 -0.0000
vn -0.2904 -0.9569 -0.0000
vn -0.4714 -0.8819 -0.0000
vn -0.6344 -0.7730 -0.0000
vn -0.7730 -0.6344 -0.0000
vn -0.8819 -0.4714 -0.0000
vn -0.9569 -0.2904 -0.0000
vn -0.9952 -0.0979 -0.0000
vn -0.9952 0.0979 -0.0000
vn -0.9569 0.2904 -0.0000
vn -0.8819 0.4714 -0.0000
vn -0.7730 0.6344 -0.0000
vn -0.6344 0.7730 -0.0000
vn -0.4714 0.8819 -0.0000
vn -0.0000 -0.0000 1.0000
vn -0.2904 0.9569 -0.0000
vn -0.0979 0.9952 -0.0000
vn 0.0299 0.3407 -0.9397
vn -0.2214 0.8017 -0.5553
vn 0.2214 0.8017 -0.5553
vn -0.0299 0.3407 0.9397
vn 0.2214 0.8017 0.5553
vn -0.2214 0.8017 0.5553
vn 0.3101 0.1445 -0.9397
vn 0.5836 0.5925 -0.5552
vn 0.8049 0.2091 -0.5553
vn 0.2801 0.1963 0.9397
vn 0.8050 0.2091 0.5553
vn 0.5836 0.5925 0.5552
vn 0.2801 -0.1963 -0.9397
vn 0.8050 -0.2091 -0.5553
vn 0.5836 -0.5925 -0.5552
vn 0.3101 -0.1445 0.9397
vn 0.5836 -0.5925 0.5552
vn 0.8050 -0.2091 0.5553
vn -0.0299 -0.3407 -0.9397
vn 0.2214 -0.8017 -0.5553
vn -0.2214 -0.8017 -0.5553
vn 0.0299 -0.3407 0.9397
vn -0.2214 -0.8017 0.5553
vn 0.2214 -0.8017 0.5553
vn -0.3101 -0.1445 -0.9397
vn -0.5836 -0.5925 -0.5552
vn -0.8049 -0.2091 -0.5553
vn -0.2801 -0.1963 0.9397
vn -0.8050 -0.2091 0.5553
vn -0.5836 -0.5925 0.5552
vn -0.2801 0.1963 -0.9397
vn -0.8050 0.2091 -0.5553
vn -0.5836 0.5925 -0.5552
vn -0.3101 0.1445 0.9397
vn -0.5836 0.5925 0.5552
vn -0.8050 0.2091 0.5553
vn 0.3989 0.6909 -0.6029
vn 0.3989 0.6909 -0.6030
vn 0.1252 0.2169 -0.9681
vn 0.3989 0.6909 0.6029
vn 0.3989 0.6909 0.6030
vn 0.1252 0.2169 0.9681
vn -0.2662 0.9639 -0.0000
vn 0.2662 0.9639 -0.0000
vn 0.9679 0.2514 -0.0000
vn 0.7017 0.7125 -0.0000
vn 0.7978 -0.0000 -0.6030
vn 0.2505 -0.0000 -0.9681
vn 0.7978 -0.0000 0.6030
vn 0.2505 -0.0000 0.9681
vn 0.7017 -0.7125 -0.0000
vn 0.9679 -0.2514 -0.0000
vn 0.3989 -0.6909 -0.6030
vn 0.3989 -0.6909 -0.6029
vn 0.1252 -0.2169 -0.9681
vn 0.3989 -0.6909 0.6029
vn 0.3989 -0.6909 0.6030
vn 0.1252 -0.2169 0.9681
vn -0.2662 -0.9639 -0.0000
vn 0.2662 -0.9639 -0.0000
vn -0.3989 -0.6909 -0.6029
vn -0.3989 -0.6909 -0.6030
vn -0.1252 -0.2169 -0.9681
vn -0.3989 -0.6909 0.6029
vn -0.3989 -0.6909 0.6030
vn -0.1252 -0.2169 0.9681
vn -0.9679 -0.2514 -0.0000
vn -0.7017 -0.7125 -0.0000
vn -0.7978 -0.0000 -0.6030
vn -0.2505 -0.0000 -0.9681
vn -0.7978 -0.0000 0.6030
vn -0.2505 -0.0000 0.9681
vn -0.7017 0.7125 -0.0000
vn -0.9679 0.2514 -0.0000
vn -0.3989 0.6909 -0.6030
vn -0.3989 0.6909 -0.6029
vn -0.1252 0.2169 -0.9681
vn -0.3989 0.6909 0.6029
vn -0.3989 0.6909 0.6030
vn -0.1252 0.2169 0.9681
vn -0.0000 -0.0000 -1.0000
vn 0.5000 0.8660 -0.0000
vn -0.5000 0.8660 -0.0000
vn 0.0001 -0.0000 1.0000
vn 1.0000 -0.0000 -0.0000
vn 0.5000 -0.8660 -0.0000
vn -0.5000 -0.8660 -0.0000
vn -1.0000 -0.0000 -0.0000
vn -0.0001 -0.0000 1.0000
vn -0.0299 0.3407 -0.9397
vn -0.3048 0.8305 -0.4663
vn 0.3048 0.8305 -0.4663
vn 0.0299 0.3407 0.9397
vn 0.3048 0.8305 0.4663
vn -0.3048 0.8305 0.4663
vn 0.2801 0.1963 -0.9397
vn 0.5668 0.6792 -0.4662
vn 0.8716 0.1513 -0.4663
vn 0.3101 0.1445 0.9397
vn 0.8716 0.1513 0.4663
vn 0.5668 0.6792 0.4662
vn 0.3101 -0.1445 -0.9397
vn 0.8716 -0.1513 -0.4663
vn 0.5668 -0.6792 -0.4662
vn 0.2801 -0.1963 0.9397
vn 0.5668 -0.6792 0.4662
vn 0.8716 -0.1513 0.4663
vn 0.0299 -0.3407 -0.9397
vn 0.3048 -0.8305 -0.4663
vn -0.3048 -0.8305 -0.4663
vn -0.0299 -0.3407 0.9397
vn -0.3048 -0.8305 0.4663
vn 0.3048 -0.8305 0.4663
vn -0.2801 -0.1963 -0.9397
vn -0.5668 -0.6792 -0.4662
vn -0.8716 -0.1513 -0.4663
vn -0.3101 -0.1445 0.9397
vn -0.8716 -0.1513 0.4663
vn -0.5668 -0.6792 0.4662
vn -0.3101 0.1445 -0.9397
vn -0.8716 0.1513 -0.4663
vn -0.5668 0.6792 -0.4662
vn -0.2801 0.1963 0.9397
vn -0.5668 0.6792 0.4662
vn -0.8716 0.1513 0.4663
vt 0.814394 0.630027
vt 0.822638 0.704333
vt 0.814394 0.704333
vt 0.822638 0.630027
vt 0.830770 0.704333
vt 0.830770 0.630027
vt 0.838479 0.704333
vt 0.838479 0.630027
vt 0.845467 0.704333
vt 0.726959 0.630027
vt 0.733334 0.704333
vt 0.726959 0.704333
vt 0.733334 0.630027
vt 0.740608 0.704333
vt 0.740608 0.630027
vt 0.748500 0.704333
vt 0.748500 0.630027
vt 0.756707 0.704333
vt 0.756707 0.630027
vt 0.764914 0.704333
vt 0.764914 0.630027
vt 0.772806 0.704333
vt 0.772806 0.630027
vt 0.780079 0.704333
vt 0.780079 0.630027
vt 0.786454 0.704333
vt 0.793443 0.778639
vt 0.786454 0.778639
vt 0.793443 0.704333
vt 0.801151 0.778639
vt 0.801151 0.704333
vt 0.809283 0.778639
vt 0.809283 0.704333
vt 0.817527 0.778639
vt 0.817527 0.704333
vt 0.825565 0.778639
vt 0.825565 0.704333
vt 0.833089 0.778639
vt 0.833089 0.704333
vt 0.839809 0.778639
vt 0.839809 0.704333
vt 0.845467 0.778639
vt 0.733334 0.778639
vt 0.726959 0.778639
vt 0.740608 0.778639
vt 0.748500 0.778639
vt 0.756707 0.778639
vt 0.764914 0.778639
vt 0.772806 0.778639
vt 0.780079 0.778639
vt 0.786454 0.630027
vt 0.792113 0.704333
vt 0.792113 0.630027
vt 0.798833 0.704333
vt 0.805928 0.568329
vt 0.788657 0.625262
vt 0.731724 0.607992
vt 0.798833 0.630027
vt 0.806356 0.704333
vt 0.806356 0.630027
vt 0.242888 0.521224
vt 0.242888 0.540839
vt 0.225713 0.533310
vt 0.242888 0.546293
vt 0.260063 0.533310
vt 0.267177 0.539586
vt 0.218599 0.539586
vt 0.728663 0.521224
vt 0.728663 0.540839
vt 0.711489 0.533310
vt 0.728663 0.546293
vt 0.745838 0.533310
vt 0.752952 0.539586
vt 0.704375 0.539586
vt 0.028046 0.397186
vt 0.011060 0.406993
vt 0.008993 0.388354
vt 0.006336 0.409720
vt 0.026168 0.418102
vt 0.024289 0.427401
vt 0.000000 0.385332
vt 0.943505 0.397186
vt 0.960492 0.406993
vt 0.945384 0.418102
vt 0.965216 0.409720
vt 0.962559 0.388354
vt 0.971551 0.385332
vt 0.947263 0.427401
vt 0.028046 0.149108
vt 0.011060 0.139301
vt 0.026168 0.128191
vt 0.006336 0.136573
vt 0.008993 0.157939
vt 0.000000 0.160962
vt 0.024289 0.118892
vt 0.943505 0.149108
vt 0.960492 0.139301
vt 0.962559 0.157939
vt 0.965216 0.136573
vt 0.945384 0.128191
vt 0.947263 0.118892
vt 0.971551 0.160962
vt 0.242888 0.025069
vt 0.242888 0.005455
vt 0.260063 0.012984
vt 0.242888 0.000000
vt 0.225713 0.012984
vt 0.218599 0.006707
vt 0.267177 0.006707
vt 0.728663 0.025069
vt 0.728663 0.005455
vt 0.745838 0.012984
vt 0.728663 0.000000
vt 0.711489 0.012984
vt 0.704375 0.006707
vt 0.752952 0.006707
vt 0.457729 0.149108
vt 0.474716 0.139301
vt 0.476783 0.157939
vt 0.479440 0.136573
vt 0.459608 0.128191
vt 0.461487 0.118892
vt 0.485776 0.160962
vt 0.513822 0.149108
vt 0.496835 0.139301
vt 0.511943 0.128191
vt 0.492111 0.136573
vt 0.494768 0.157939
vt 0.510064 0.118892
vt 0.457729 0.397186
vt 0.474716 0.406993
vt 0.459608 0.418102
vt 0.479440 0.409720
vt 0.476783 0.388354
vt 0.485776 0.385332
vt 0.461487 0.427401
vt 0.513822 0.397186
vt 0.496835 0.406993
vt 0.494768 0.388354
vt 0.492111 0.409720
vt 0.511943 0.418102
vt 0.510064 0.427401
vt 0.000000 0.821526
vt 0.181740 0.798287
vt 0.181740 0.821526
vt 0.000000 0.798287
vt 0.181740 0.773342
vt 0.726959 0.795052
vt 0.545219 0.819440
vt 0.545219 0.795052
vt 0.181740 0.546293
vt 0.000000 0.566348
vt 0.000000 0.546293
vt 0.363480 0.979945
vt 0.181740 1.000000
vt 0.181740 0.979945
vt 0.726959 0.546293
vt 0.545220 0.570682
vt 0.545220 0.546293
vt 0.363480 0.724767
vt 0.181740 0.748007
vt 0.181740 0.724767
vt 0.363480 0.748007
vt 0.181740 0.772951
vt 0.545219 0.812733
vt 0.363480 0.837121
vt 0.363480 0.812733
vt 0.545219 0.837121
vt 0.363480 0.854802
vt 0.545219 0.546293
vt 0.363480 0.563975
vt 0.363480 0.546293
vt 0.545219 0.563975
vt 0.363480 0.588363
vt 0.000000 0.773342
vt 0.181740 0.566348
vt -0.000000 1.000000
vt 0.767531 0.257047
vt 0.763643 0.249774
vt 0.687402 0.281354
vt 0.689796 0.289246
vt 0.726959 0.570682
vt 0.363480 0.772951
vt 0.545219 0.588363
vt 0.845467 0.630027
vt 0.728568 0.600372
vt 0.726959 0.592284
vt 0.726959 0.584037
vt 0.728568 0.575948
vt 0.731724 0.568329
vt 0.736306 0.561472
vt 0.742138 0.555640
vt 0.748995 0.551058
vt 0.756614 0.547902
vt 0.764703 0.546293
vt 0.772950 0.546293
vt 0.781038 0.547902
vt 0.788657 0.551058
vt 0.795515 0.555640
vt 0.801346 0.561472
vt 0.809084 0.575948
vt 0.810693 0.584037
vt 0.810693 0.592284
vt 0.809084 0.600372
vt 0.805928 0.607992
vt 0.801346 0.614849
vt 0.795515 0.620680
vt 0.781038 0.628418
vt 0.772950 0.630027
vt 0.764703 0.630027
vt 0.756614 0.628418
vt 0.748995 0.625262
vt 0.742138 0.620680
vt 0.736306 0.614849
vt 0.726959 0.819440
vt 0.363480 1.000000
vt 0.545219 0.854802
vt 0.698916 0.243399
vt 0.693684 0.249774
vt 0.728663 0.315216
vt 0.736871 0.314408
vt 0.744763 0.312014
vt 0.705291 0.238167
vt 0.712564 0.234280
vt 0.752036 0.308126
vt 0.758411 0.302894
vt 0.720456 0.231886
vt 0.763643 0.296519
vt 0.728663 0.231077
vt 0.736871 0.231886
vt 0.767531 0.289246
vt 0.769925 0.281354
vt 0.744763 0.234280
vt 0.752036 0.238167
vt 0.770733 0.273147
vt 0.769925 0.264939
vt 0.758411 0.243399
vt 0.720456 0.314408
vt 0.689796 0.257047
vt 0.687402 0.264939
vt 0.712564 0.312014
vt 0.705291 0.308126
vt 0.686594 0.273147
vt 0.698916 0.302894
vt 0.693684 0.296519
s 1
f 2/1/1 118/2/1 117/3/1
f 6/4/2 119/5/2 118/2/2
f 8/6/3 120/7/3 119/5/3
f 11/8/4 121/9/4 120/7/4
f 14/10/5 122/11/5 121/12/5
f 17/13/6 123/14/6 122/11/6
f 21/15/7 124/16/7 123/14/7
f 23/17/8 125/18/8 124/16/8
f 26/19/9 126/20/9 125/18/9
f 29/21/10 127/22/10 126/20/10
f 32/23/11 128/24/11 127/22/11
f 36/25/12 129/26/12 128/24/12
f 38/26/13 130/27/13 129/28/13
f 41/29/14 131/30/14 130/27/14
f 44/31/15 132/32/15 131/30/15
f 47/33/16 133/34/16 132/32/16
f 50/35/17 134/36/17 133/34/17
f 53/37/18 135/38/18 134/36/18
f 57/39/19 136/40/19 135/38/19
f 60/41/20 137/42/20 136/40/20
f 63/12/21 138/43/21 137/44/21
f 66/11/22 139/45/22 138/43/22
f 68/14/23 140/46/23 139/45/23
f 72/16/24 141/47/24 140/46/24
f 75/18/25 142/48/25 141/47/25
f 78/20/26 143/49/26 142/48/26
f 80/22/27 144/50/27 143/49/27
f 84/24/28 145/28/28 144/50/28
f 87/51/29 146/52/29 145/26/29
f 89/53/30 147/54/30 146/52/30
f 47/55/31 23/56/31 96/57/31
f 92/58/32 148/59/32 147/54/32
f 96/60/33 117/3/33 148/59/33
f 1/61/34 7/62/34 10/63/34
f 9/64/35 5/65/35 3/66/35
f 10/63/36 9/64/36 4/67/36
f 12/68/37 18/69/37 20/70/37
f 19/71/38 16/72/38 13/73/38
f 20/70/39 19/71/39 15/74/39
f 22/75/40 28/76/40 31/77/40
f 30/78/41 27/79/41 24/80/41
f 31/77/42 30/78/42 25/81/42
f 33/82/43 39/83/43 42/84/43
f 40/85/44 37/86/44 34/87/44
f 42/84/45 40/85/45 35/88/45
f 43/89/46 49/90/46 52/91/46
f 51/92/47 48/93/47 45/94/47
f 52/91/48 51/92/48 46/95/48
f 54/96/49 59/97/49 62/98/49
f 61/99/50 58/100/50 55/101/50
f 62/98/51 61/99/51 56/102/51
f 64/103/52 70/104/52 73/105/52
f 71/106/53 69/107/53 65/108/53
f 73/105/54 71/106/54 67/109/54
f 74/110/55 81/111/55 83/112/55
f 82/113/56 79/114/56 76/115/56
f 83/112/57 82/113/57 77/116/57
f 85/117/58 91/118/58 94/119/58
f 93/120/59 90/121/59 86/122/59
f 94/119/60 93/120/60 88/123/60
f 95/124/61 100/125/61 102/126/61
f 101/127/62 99/128/62 97/123/62
f 102/126/63 101/127/63 98/129/63
f 103/130/64 107/131/64 109/132/64
f 108/133/65 106/134/65 104/135/65
f 109/132/66 108/133/66 105/136/66
f 110/137/67 114/138/67 116/139/67
f 115/140/68 113/141/68 111/142/68
f 116/139/69 115/140/69 112/135/69
f 24/80/70 10/63/71 4/67/71
f 10/63/72 22/75/72 1/61/72
f 35/88/73 16/72/74 42/84/73
f 16/72/75 33/82/75 42/84/75
f 15/143/76 9/144/76 3/145/76
f 19/146/77 4/147/77 9/144/77
f 25/148/78 40/149/78 34/150/78
f 30/151/79 35/152/79 40/153/79
f 45/94/80 31/77/80 25/81/80
f 48/93/81 22/75/81 31/77/81
f 34/87/82 62/98/82 56/102/82
f 37/86/83 54/96/83 62/98/83
f 46/154/84 61/155/84 55/156/84
f 51/157/85 56/158/85 61/159/85
f 65/108/86 52/91/87 46/95/87
f 69/107/88 43/89/88 52/91/88
f 55/101/89 83/112/90 77/116/90
f 83/112/91 54/96/91 74/110/91
f 67/160/92 82/161/92 76/162/92
f 71/163/93 77/164/93 82/161/93
f 86/122/94 73/105/95 67/109/95
f 73/105/96 85/117/96 64/103/96
f 98/129/97 79/114/98 102/126/97
f 79/114/99 95/124/99 102/126/99
f 88/165/100 101/166/100 97/167/100
f 93/168/101 98/169/101 101/166/101
f 104/135/102 94/119/102 88/123/102
f 106/134/103 85/117/103 94/119/103
f 97/123/104 116/139/104 112/135/104
f 99/128/105 110/137/105 116/139/105
f 105/170/106 115/171/106 111/172/106
f 108/173/107 112/174/107 115/171/107
f 3/66/108 109/132/109 105/136/109
f 5/65/110 103/130/110 109/132/110
f 111/142/111 20/70/112 15/74/112
f 20/70/113 110/137/113 12/68/113
f 1/61/114 43/89/114 85/117/114
f 13/175/115 24/176/115 4/147/115
f 111/177/116 3/145/116 105/155/116
f 54/96/31 127/178/31 128/179/31
f 12/68/31 142/180/31 143/181/117
f 34/150/118 45/182/118 25/148/118
f 55/156/119 65/183/119 46/154/119
f 76/162/120 86/172/120 67/160/120
f 97/167/121 104/184/121 88/165/121
f 2/1/1 6/4/1 118/2/1
f 6/4/2 8/6/2 119/5/2
f 8/6/3 11/8/3 120/7/3
f 11/8/4 14/185/4 121/9/4
f 14/10/5 17/13/5 122/11/5
f 17/13/6 21/15/6 123/14/6
f 21/15/7 23/17/7 124/16/7
f 23/17/8 26/19/8 125/18/8
f 26/19/9 29/21/9 126/20/9
f 29/21/10 32/23/10 127/22/10
f 32/23/11 36/25/11 128/24/11
f 36/25/12 38/51/12 129/26/12
f 38/26/13 41/29/13 130/27/13
f 41/29/14 44/31/14 131/30/14
f 44/31/15 47/33/15 132/32/15
f 47/33/16 50/35/16 133/34/16
f 50/35/17 53/37/17 134/36/17
f 53/37/18 57/39/18 135/38/18
f 57/39/19 60/41/19 136/40/19
f 60/41/20 63/9/20 137/42/20
f 63/12/21 66/11/21 138/43/21
f 66/11/22 68/14/22 139/45/22
f 68/14/23 72/16/23 140/46/23
f 72/16/24 75/18/24 141/47/24
f 75/18/25 78/20/25 142/48/25
f 78/20/26 80/22/26 143/49/26
f 80/22/27 84/24/27 144/50/27
f 84/24/28 87/26/28 145/28/28
f 87/51/29 89/53/29 146/52/29
f 89/53/30 92/58/30 147/54/30
f 96/57/31 92/186/31 89/187/31
f 89/187/31 87/188/117 84/189/31
f 84/189/31 80/190/31 78/191/31
f 78/191/31 75/192/31 72/193/31
f 72/193/31 68/194/122 66/195/31
f 66/195/31 63/196/117 60/197/31
f 60/197/31 57/198/31 53/199/31
f 53/199/31 50/200/31 47/55/31
f 47/55/31 44/201/31 41/202/31
f 41/202/31 38/203/122 36/204/31
f 36/204/31 32/205/31 29/206/31
f 29/206/31 26/207/31 23/56/31
f 23/56/31 21/208/117 17/209/31
f 17/209/31 14/210/122 11/211/31
f 11/211/31 8/212/31 6/213/31
f 6/213/31 2/214/31 96/57/31
f 96/57/31 89/187/31 84/189/31
f 84/189/31 78/191/31 72/193/31
f 72/193/31 66/195/31 60/197/31
f 60/197/31 53/199/31 47/55/31
f 47/55/31 41/202/31 36/204/31
f 36/204/31 29/206/31 23/56/31
f 23/56/31 17/209/31 11/211/31
f 11/211/31 6/213/31 96/57/31
f 96/57/31 84/189/31 72/193/31
f 72/193/31 60/197/31 47/55/31
f 47/55/31 36/204/31 23/56/31
f 23/56/31 11/211/31 96/57/31
f 96/57/31 72/193/31 47/55/31
f 92/58/32 96/60/32 148/59/32
f 96/60/33 2/1/33 117/3/33
f 1/61/123 5/65/123 7/62/123
f 9/64/124 7/62/124 5/65/124
f 10/63/125 7/62/125 9/64/125
f 12/68/126 16/72/126 18/69/126
f 19/71/127 18/69/127 16/72/127
f 20/70/128 18/69/128 19/71/128
f 22/75/129 27/79/129 28/76/129
f 30/78/130 28/76/130 27/79/130
f 31/77/131 28/76/131 30/78/131
f 33/82/132 37/86/132 39/83/132
f 40/85/133 39/83/133 37/86/133
f 42/84/134 39/83/134 40/85/134
f 43/89/135 48/93/135 49/90/135
f 51/92/136 49/90/136 48/93/136
f 52/91/137 49/90/137 51/92/137
f 54/96/138 58/100/138 59/97/138
f 61/99/139 59/97/139 58/100/139
f 62/98/140 59/97/140 61/99/140
f 64/103/141 69/107/141 70/104/141
f 71/106/142 70/104/142 69/107/142
f 73/105/143 70/104/143 71/106/143
f 74/110/144 79/114/144 81/111/144
f 82/113/145 81/111/145 79/114/145
f 83/112/146 81/111/146 82/113/146
f 85/117/147 90/121/147 91/118/147
f 93/120/148 91/118/148 90/121/148
f 94/119/149 91/118/149 93/120/149
f 95/124/150 99/128/150 100/125/150
f 101/127/151 100/125/151 99/128/151
f 102/126/152 100/125/152 101/127/152
f 103/130/153 106/134/153 107/131/153
f 108/133/154 107/131/154 106/134/154
f 109/132/155 107/131/155 108/133/155
f 110/137/156 113/141/156 114/138/156
f 115/140/157 114/138/157 113/141/157
f 116/139/158 114/138/158 115/140/158
f 24/80/70 27/79/70 10/63/71
f 10/63/72 27/79/72 22/75/72
f 35/88/73 13/73/74 16/72/74
f 16/72/75 12/68/75 33/82/75
f 15/143/76 19/146/76 9/144/76
f 19/146/77 13/175/77 4/147/77
f 25/148/78 30/215/78 40/149/78
f 30/151/79 24/176/79 35/152/79
f 45/94/80 48/93/80 31/77/80
f 48/93/81 43/89/81 22/75/81
f 34/87/82 37/86/82 62/98/82
f 37/86/83 33/82/83 54/96/83
f 46/154/84 51/216/84 61/155/84
f 51/157/85 45/182/85 56/158/85
f 65/108/86 69/107/86 52/91/87
f 69/107/88 64/103/88 43/89/88
f 55/101/89 58/100/89 83/112/90
f 83/112/91 58/100/91 54/96/91
f 67/160/92 71/163/92 82/161/92
f 71/163/93 65/183/93 77/164/93
f 86/122/94 90/121/94 73/105/95
f 73/105/96 90/121/96 85/117/96
f 98/129/97 76/115/98 79/114/98
f 79/114/99 74/110/99 95/124/99
f 88/165/100 93/168/100 101/166/100
f 93/168/101 86/217/101 98/169/101
f 104/135/102 106/134/102 94/119/102
f 106/134/103 103/130/103 85/117/103
f 97/123/104 99/128/104 116/139/104
f 99/128/105 95/124/105 110/137/105
f 105/170/106 108/173/106 115/171/106
f 108/173/107 104/184/107 112/174/107
f 3/66/108 5/65/108 109/132/109
f 5/65/110 1/61/110 103/130/110
f 111/142/111 113/141/111 20/70/112
f 20/70/113 113/141/113 110/137/113
f 85/117/114 103/130/114 1/61/114
f 1/61/114 22/75/114 43/89/114
f 43/89/114 64/103/114 85/117/114
f 13/175/115 35/152/115 24/176/115
f 111/177/116 15/143/116 3/145/116
f 137/218/31 138/219/31 95/124/31
f 95/124/31 74/110/31 54/96/31
f 54/96/31 33/82/31 12/68/31
f 12/68/31 117/220/31 118/221/31
f 12/68/31 118/221/31 119/222/31
f 136/223/31 137/218/31 95/124/31
f 135/224/31 136/223/31 95/124/31
f 12/68/31 119/222/31 120/225/31
f 12/68/31 120/225/31 121/226/31
f 135/224/31 95/124/31 54/96/31
f 134/227/31 135/224/31 54/96/31
f 54/96/31 12/68/31 121/226/31
f 54/96/31 121/226/31 122/228/31
f 133/229/31 134/227/31 54/96/31
f 132/230/31 133/229/31 54/96/31
f 54/96/31 122/228/31 123/231/31
f 54/96/31 123/231/31 124/232/31
f 131/233/31 132/230/31 54/96/31
f 130/234/31 131/233/31 54/96/31
f 54/96/31 124/232/31 125/235/31
f 54/96/31 125/235/31 126/236/31
f 129/237/31 130/234/31 54/96/31
f 128/179/31 129/237/31 54/96/31
f 54/96/31 126/236/31 127/178/31
f 148/238/31 117/220/31 12/68/31
f 12/68/31 110/137/31 95/124/31
f 95/124/31 138/219/31 139/239/31
f 95/124/31 139/239/31 140/240/31
f 147/241/31 148/238/31 12/68/31
f 146/242/31 147/241/31 12/68/31
f 95/124/31 140/240/31 141/243/31
f 95/124/31 141/243/31 142/180/31
f 145/244/31 146/242/31 12/68/31
f 144/245/31 145/244/31 12/68/31
f 12/68/31 95/124/31 142/180/31
f 143/181/117 144/245/31 12/68/31
f 34/150/118 56/158/118 45/182/118
f 55/156/119 77/164/119 65/183/119
f 76/162/120 98/151/120 86/172/120
f 97/167/121 112/174/121 104/184/121
