# Blender 4.5.3 LTS
# www.blender.org
o coral27_M_coral_01_0
v -0.078962 0.072222 -0.000330
v -0.093158 0.036228 0.000140
v -0.061202 0.047651 0.013385
v 0.001830 0.146546 -0.085215
v -0.025845 0.154116 -0.066180
v 0.113396 -0.066254 -0.125585
v 0.116203 -0.024210 -0.129240
v 0.150756 -0.027682 -0.109930
v 0.157183 -0.079209 -0.046047
v 0.157985 -0.057976 -0.093049
v 0.058473 -0.163733 -0.080668
v 0.035368 -0.169502 -0.062959
v -0.071454 -0.151214 -0.085085
v -0.142747 0.049837 -0.085030
v -0.153049 -0.078863 -0.087667
v -0.146881 -0.024577 -0.112486
v -0.112906 -0.044147 -0.133017
v -0.061746 -0.140334 -0.107342
v -0.117943 -0.119095 -0.101360
v -0.100544 -0.073940 -0.133780
v 0.072330 -0.129936 -0.115338
v 0.022205 -0.097419 -0.138511
v 0.071844 -0.064609 -0.138920
v -0.030505 -0.113840 -0.129128
v 0.008189 -0.116771 -0.131411
v 0.020096 -0.138763 -0.115484
v 0.051694 -0.043528 -0.146630
v 0.011569 -0.069829 -0.148555
v 0.008248 -0.016543 -0.154850
v 0.065809 0.042750 -0.136920
v 0.068931 -0.014026 -0.145681
v 0.023183 0.022132 -0.150489
v 0.096875 0.068583 -0.124901
v 0.109940 0.028574 -0.130956
v -0.156977 -0.016581 -0.076540
v -0.086076 0.102743 -0.108048
v -0.045815 0.036730 0.018409
v -0.043041 0.010622 0.021580
v -0.020054 0.021134 0.025625
v -0.029728 0.049082 0.022381
v -0.006684 -0.066066 0.025313
v 0.014081 -0.058475 0.030294
v 0.004574 -0.034052 0.030049
v -0.019044 -0.049653 0.028094
v -0.033495 -0.021189 0.025906
v -0.007459 -0.006826 0.029948
v 0.036689 0.056201 0.016779
v 0.012492 0.074526 0.015387
v 0.009321 0.061240 0.018347
v 0.022523 0.043362 0.017993
v -0.038472 0.069148 0.008808
v -0.071999 0.005691 0.018887
v -0.062796 -0.039745 0.023717
v -0.041661 -0.071534 0.021148
v -0.015829 -0.089606 0.019817
v 0.017503 -0.083063 0.022328
v 0.062708 -0.038776 0.029358
v 0.068484 -0.006045 0.033092
v 0.049660 -0.010983 0.035673
v 0.054195 -0.033587 0.032188
v 0.039185 0.017223 0.022734
v 0.055482 0.028083 0.023176
v 0.036851 -0.045408 0.030828
v 0.043427 -0.063366 0.024453
v 0.029603 -0.021850 0.028866
v 0.004160 0.034076 0.025087
v 0.016256 0.005857 0.024396
v -0.008097 0.058402 0.020733
v -0.013787 0.077951 0.009952
v 0.050911 0.074774 0.016504
v 0.017176 0.097279 0.008988
v -0.020841 0.105912 -0.003770
v -0.047468 0.093329 -0.008624
v -0.112373 -0.002261 0.009374
v -0.089330 -0.061042 0.015681
v -0.063272 -0.095509 0.009988
v -0.029425 -0.130264 0.005404
v 0.018744 -0.112180 0.006712
v 0.053663 -0.083438 0.013500
v 0.076320 -0.047825 0.021443
v 0.085372 -0.003373 0.024040
v 0.074175 0.040549 0.022129
v 0.132288 -0.069674 -0.005884
v 0.153216 -0.002819 -0.007781
v 0.110571 -0.002135 0.009957
v 0.099834 -0.058734 0.009932
v 0.132380 0.072782 -0.013714
v 0.102977 0.053362 0.011551
v 0.084178 0.122659 -0.017175
v 0.071164 0.099310 0.006492
v 0.024292 0.142138 -0.022215
v 0.022147 0.124191 -0.005361
v -0.029853 0.148196 -0.040766
v -0.028761 0.134745 -0.026043
v -0.096144 0.091682 -0.019152
v -0.059849 0.123151 -0.029782
v -0.059927 0.138313 -0.049937
v -0.108916 0.097526 -0.042545
v -0.133805 0.048579 -0.027708
v -0.114855 0.044478 -0.011838
v -0.116880 -0.074785 0.000460
v -0.134655 -0.006979 -0.004825
v -0.154310 -0.004911 -0.024315
v -0.139259 -0.087654 -0.025762
v -0.104826 -0.123348 -0.020990
v -0.084737 -0.112497 -0.002973
v -0.038338 -0.150031 -0.007036
v -0.047116 -0.166337 -0.027585
v 0.029149 -0.165826 -0.041987
v 0.028715 -0.146435 -0.014872
v 0.089807 -0.133524 -0.017646
v 0.069436 -0.106646 0.001092
v 0.101263 -0.145366 -0.049892
v -0.045578 -0.170938 -0.058111
v -0.113047 -0.133303 -0.053497
v -0.164961 -0.010651 -0.057372
v -0.105571 0.110166 -0.073389
v -0.143089 0.051314 -0.064882
v 0.028653 0.147791 -0.035745
v 0.086678 0.125612 -0.028515
v 0.175136 -0.002480 -0.049263
v 0.073392 0.143775 -0.066562
v 0.102971 0.127377 -0.069386
v 0.138258 0.088427 -0.086481
v 0.147345 0.079770 -0.040033
v 0.165238 0.024670 -0.083606
v -0.028536 0.141586 -0.095397
v -0.061877 0.136772 -0.075717
v 0.036313 0.145510 -0.088157
v 0.040072 0.124987 -0.107767
v 0.070656 0.108872 -0.113965
v 0.100373 0.110948 -0.098188
v 0.121501 0.090309 -0.104265
v 0.138937 0.029951 -0.115208
v 0.119650 -0.098545 -0.106932
v 0.005081 -0.160359 -0.098826
v -0.151122 -0.091911 -0.054300
v -0.095527 0.058532 -0.123006
v -0.127985 0.034354 -0.107447
v 0.010079 0.110029 -0.123747
v -0.025628 0.111779 -0.122573
v -0.037774 0.092250 -0.129686
v -0.076267 0.031756 -0.137938
v -0.092156 -0.009060 -0.136461
v -0.062187 -0.085900 -0.138664
v -0.067548 -0.028649 -0.141933
v -0.037959 -0.053252 -0.150075
v -0.042967 0.024403 -0.147913
v -0.019955 -0.005426 -0.155720
v -0.024502 0.064998 -0.143232
v 0.009946 0.058540 -0.144744
v 0.024829 0.085939 -0.134660
v 0.094409 -0.009384 -0.139327
vn -0.3072 0.4086 0.8595
vn -0.4196 0.2946 0.8586
vn -0.2685 0.3124 0.9112
vn 0.1358 0.9763 0.1687
vn 0.0338 0.9060 -0.4219
vn -0.1429 0.9870 -0.0742
vn 0.4260 -0.2735 -0.8624
vn 0.4658 -0.0373 -0.8841
vn 0.7800 -0.0604 -0.6228
vn 0.8513 -0.4992 0.1619
vn 0.8347 -0.3823 -0.3964
vn 0.9824 0.0428 0.1816
vn 0.3454 -0.8390 -0.4205
vn 0.6477 -0.7612 0.0323
vn 0.1135 -0.9934 0.0160
vn -0.6251 -0.7790 0.0483
vn -0.3542 -0.8611 -0.3648
vn -0.2300 -0.9705 -0.0729
vn -0.8224 0.3380 -0.4576
vn -0.9057 0.4148 0.0873
vn -0.6803 0.7182 -0.1460
vn -0.8449 -0.3474 -0.4068
vn -0.7016 0.1007 -0.7054
vn -0.4650 -0.0458 -0.8841
vn -0.2429 -0.7131 -0.6577
vn -0.5956 -0.5998 -0.5342
vn -0.4195 -0.2734 -0.8656
vn 0.4062 -0.6182 -0.6729
vn 0.0987 -0.3541 -0.9300
vn 0.2702 -0.2552 -0.9284
vn -0.1067 -0.4675 -0.8775
vn 0.0164 -0.4539 -0.8909
vn 0.0661 -0.6194 -0.7823
vn 0.1776 -0.1110 -0.9778
vn 0.0351 -0.2357 -0.9712
vn 0.0625 -0.0215 -0.9978
vn 0.2023 0.2344 -0.9509
vn 0.1994 0.0279 -0.9795
vn 0.1315 0.1311 -0.9826
vn 0.3081 0.3233 -0.8947
vn 0.3682 0.1613 -0.9157
vn -0.9577 0.0719 -0.2787
vn -0.4528 0.5454 -0.7053
vn -0.2098 0.1664 0.9635
vn -0.1626 0.0917 0.9824
vn -0.0905 0.0902 0.9918
vn -0.1653 0.2526 0.9533
vn -0.0800 -0.2035 0.9758
vn 0.0056 -0.1630 0.9866
vn -0.0345 0.0189 0.9992
vn -0.1057 -0.0919 0.9901
vn -0.1313 0.0213 0.9911
vn -0.0443 0.0683 0.9967
vn -0.0488 0.1439 0.9884
vn -0.0785 0.2603 0.9623
vn 0.0778 0.2247 0.9713
vn 0.0657 0.1505 0.9864
vn -0.2107 0.4399 0.8730
vn -0.2545 0.1383 0.9571
vn -0.1916 -0.0414 0.9806
vn -0.1418 -0.2159 0.9661
vn -0.0438 -0.3262 0.9443
vn 0.1085 -0.3765 0.9200
vn 0.3094 -0.2484 0.9179
vn 0.2111 0.0862 0.9737
vn -0.0996 0.1329 0.9861
vn 0.0376 -0.1571 0.9869
vn -0.0665 0.2089 0.9757
vn -0.0009 0.1950 0.9808
vn 0.0272 -0.1332 0.9907
vn 0.2013 -0.3598 0.9111
vn -0.0743 0.0871 0.9934
vn 0.0848 0.1387 0.9867
vn 0.0162 0.1405 0.9899
vn -0.0372 0.2981 0.9538
vn -0.2040 0.4047 0.8914
vn 0.0692 0.2820 0.9569
vn -0.0860 0.4112 0.9075
vn -0.2449 0.4816 0.8415
vn -0.2386 0.4959 0.8350
vn -0.4094 0.1075 0.9060
vn -0.3221 -0.1522 0.9344
vn -0.2223 -0.3217 0.9204
vn -0.0286 -0.4420 0.8966
vn 0.1346 -0.4590 0.8782
vn 0.2107 -0.4005 0.8918
vn 0.3538 -0.2411 0.9037
vn 0.3903 0.0050 0.9207
vn 0.2205 0.1707 0.9603
vn 0.6267 -0.3327 0.7046
vn 0.7249 0.0128 0.6887
vn 0.4369 0.0164 0.8993
vn 0.3553 -0.2282 0.9065
vn 0.6555 0.3504 0.6690
vn 0.4196 0.2355 0.8766
vn 0.4014 0.6449 0.6504
vn 0.2668 0.4674 0.8428
vn 0.0510 0.8138 0.5789
vn -0.0155 0.5966 0.8024
vn -0.2147 0.8866 0.4097
vn -0.2489 0.6194 0.7446
vn -0.4618 0.5328 0.7092
vn -0.3794 0.6361 0.6719
vn -0.4936 0.8240 0.2782
vn -0.7136 0.6167 0.3324
vn -0.8012 0.4194 0.4267
vn -0.5585 0.3439 0.7548
vn -0.5519 -0.2369 0.7996
vn -0.6190 0.0364 0.7845
vn -0.8663 0.0772 0.4935
vn -0.7822 -0.3287 0.5292
vn -0.5474 -0.6618 0.5121
vn -0.3724 -0.4684 0.8012
vn -0.0867 -0.6507 0.7544
vn -0.2358 -0.8698 0.4334
vn 0.1520 -0.8914 0.4270
vn 0.1485 -0.6527 0.7430
vn 0.4413 -0.6388 0.6302
vn 0.2331 -0.4552 0.8593
vn -0.8958 -0.4285 0.1183
vn -0.9894 0.0562 0.1338
vn -0.4744 0.8466 -0.2412
vn 0.5259 0.7943 0.3040
vn 0.8523 0.4714 0.2265
vn 0.3133 0.9462 -0.0815
vn 0.5702 0.8206 -0.0382
vn 0.8223 0.5279 -0.2124
vn 0.9117 0.2221 -0.3457
vn -0.1829 0.7715 -0.6094
vn 0.1183 0.9192 -0.3757
vn 0.1679 0.6719 -0.7214
vn 0.2590 0.5236 -0.8117
vn 0.3948 0.6706 -0.6281
vn 0.5613 0.4503 -0.6944
vn 0.6202 0.1818 -0.7630
vn 0.6293 -0.5640 -0.5347
vn -0.0156 -0.8226 -0.5684
vn -0.4623 0.3060 -0.8323
vn -0.6574 0.2534 -0.7097
vn 0.0476 0.5667 -0.8226
vn -0.1226 0.5825 -0.8036
vn -0.2245 0.4209 -0.8789
vn -0.3529 0.1882 -0.9165
vn -0.3631 0.1110 -0.9251
vn -0.1754 -0.3365 -0.9252
vn -0.2409 -0.0150 -0.9704
vn -0.1279 -0.1599 -0.9788
vn -0.1928 0.1404 -0.9711
vn -0.1043 0.0295 -0.9941
vn -0.1268 0.2711 -0.9542
vn 0.0726 0.2420 -0.9676
vn 0.1362 0.3555 -0.9247
vn 0.3011 0.0203 -0.9534
vt 0.313517 0.409965
vt 0.334022 0.407458
vt 0.320025 0.393721
vt 0.228782 0.354925
vt 0.212082 0.385366
vt 0.228103 0.397503
vt 0.076266 0.363916
vt 0.097574 0.357234
vt 0.090496 0.337541
vt 0.046101 0.321718
vt 0.071648 0.334892
vt 0.096097 0.298039
vt 0.023871 0.404899
vt 0.013611 0.370944
vt 0.013322 0.419694
vt 0.060953 0.512299
vt 0.051245 0.478988
vt 0.026317 0.472925
vt 0.180134 0.488315
vt 0.187155 0.496502
vt 0.213322 0.458929
vt 0.106960 0.510493
vt 0.135424 0.493489
vt 0.120246 0.476421
vt 0.059799 0.467950
vt 0.080717 0.494434
vt 0.103248 0.474250
vt 0.047721 0.393419
vt 0.073394 0.415684
vt 0.083226 0.385778
vt 0.071316 0.445578
vt 0.064937 0.425663
vt 0.049291 0.422913
vt 0.097222 0.393512
vt 0.089658 0.417249
vt 0.117294 0.411725
vt 0.139249 0.374171
vt 0.109765 0.381022
vt 0.134720 0.398984
vt 0.147617 0.354282
vt 0.125294 0.353895
vt 0.145374 0.511322
vt 0.197345 0.443903
vt 0.320960 0.383369
vt 0.332082 0.374833
vt 0.321166 0.366916
vt 0.311054 0.378903
vt 0.357568 0.337168
vt 0.348384 0.329722
vt 0.339889 0.340708
vt 0.353135 0.347269
vt 0.343995 0.361605
vt 0.330588 0.353512
vt 0.289390 0.350433
vt 0.287459 0.366963
vt 0.294544 0.364650
vt 0.298985 0.353524
vt 0.303344 0.390121
vt 0.342085 0.386716
vt 0.360194 0.369815
vt 0.369417 0.351839
vt 0.370917 0.335064
vt 0.359206 0.321326
vt 0.327015 0.312673
vt 0.310935 0.319126
vt 0.317883 0.326131
vt 0.326857 0.318145
vt 0.306724 0.338860
vt 0.297625 0.333775
vt 0.336685 0.322818
vt 0.343481 0.314453
vt 0.327900 0.332709
vt 0.308729 0.359538
vt 0.318164 0.346251
vt 0.300795 0.371833
vt 0.292542 0.380909
vt 0.277183 0.348657
vt 0.275343 0.371273
vt 0.280677 0.393198
vt 0.293382 0.403540
vt 0.356875 0.403086
vt 0.377357 0.376478
vt 0.387119 0.355766
vt 0.393928 0.330745
vt 0.373965 0.311751
vt 0.350821 0.303236
vt 0.327666 0.303137
vt 0.304669 0.311285
vt 0.287141 0.328249
vt 0.323138 0.268230
vt 0.284737 0.276579
vt 0.296614 0.298219
vt 0.326644 0.288204
vt 0.252012 0.307398
vt 0.272855 0.317922
vt 0.240444 0.346765
vt 0.259684 0.345992
vt 0.248099 0.383832
vt 0.259939 0.377607
vt 0.259713 0.415658
vt 0.267560 0.408428
vt 0.308717 0.426125
vt 0.281860 0.420866
vt 0.271976 0.430471
vt 0.307950 0.440711
vt 0.340102 0.434726
vt 0.336444 0.421491
vt 0.392556 0.386498
vt 0.365800 0.413881
vt 0.372091 0.427249
vt 0.409287 0.396678
vt 0.416471 0.368982
vt 0.402426 0.361679
vt 0.406833 0.329457
vt 0.421384 0.328403
vt 0.406067 0.286342
vt 0.390381 0.296166
vt 0.367123 0.269711
vt 0.358354 0.288580
vt 0.375262 0.252041
vt 0.320763 0.241436
vt 0.413326 0.276723
vt 0.436724 0.322491
vt 0.435722 0.372412
vt 0.422262 0.406883
vt 0.383706 0.442210
vt 0.296938 0.455553
vt 0.342500 0.456034
vt 0.266870 0.443418
vt 0.248399 0.424664
vt 0.239893 0.385940
vt 0.233875 0.346462
vt 0.237562 0.297864
vt 0.272079 0.255213
vt 0.199050 0.343494
vt 0.205137 0.318817
vt 0.184295 0.331341
vt 0.154263 0.323391
vt 0.156697 0.296739
vt 0.115671 0.315848
vt 0.211693 0.404706
vt 0.221891 0.425276
vt 0.202274 0.367635
vt 0.187997 0.371918
vt 0.173175 0.360092
vt 0.170867 0.342293
vt 0.155759 0.336292
vt 0.121955 0.336897
vt 0.056026 0.362805
vt 0.037052 0.434840
vt 0.096674 0.527743
vt 0.151717 0.521904
vt 0.172962 0.454953
vt 0.166308 0.478429
vt 0.183503 0.391172
vt 0.190013 0.409117
vt 0.181526 0.419100
vt 0.155090 0.447950
vt 0.136132 0.461639
vt 0.091669 0.456648
vt 0.122256 0.451649
vt 0.105238 0.439531
vt 0.145858 0.431693
vt 0.127021 0.424126
vt 0.164005 0.416635
vt 0.155401 0.400316
vt 0.167644 0.388334
vt 0.108422 0.367348
s 1
f 1/1/1 2/2/2 3/3/3
f 119/4/4 4/5/5 5/6/6
f 6/7/7 7/8/8 8/9/9
f 9/10/10 10/11/11 121/12/12
f 11/13/13 113/14/14 12/15/15
f 115/16/16 13/17/17 114/18/18
f 14/19/19 118/20/20 117/21/21
f 15/22/22 16/23/23 17/24/24
f 18/25/25 19/26/26 20/27/27
f 21/28/28 22/29/29 23/30/30
f 24/31/31 25/32/32 26/33/33
f 27/34/34 28/35/35 29/36/36
f 30/37/37 31/38/38 32/39/39
f 33/40/40 34/41/41 30/37/37
f 16/23/23 15/22/22 35/42/42
f 36/43/43 14/19/19 117/21/21
f 37/44/44 38/45/45 39/46/46
f 37/44/44 39/46/46 40/47/47
f 41/48/48 42/49/49 43/50/50
f 41/48/48 43/50/50 44/51/51
f 45/52/52 46/53/53 39/46/46
f 45/52/52 39/46/46 38/45/45
f 47/54/54 48/55/55 49/56/56
f 47/54/54 49/56/56 50/57/57
f 40/47/47 51/58/58 3/3/3
f 40/47/47 3/3/3 37/44/44
f 3/3/3 52/59/59 38/45/45
f 3/3/3 38/45/45 37/44/44
f 52/59/59 53/60/60 45/52/52
f 52/59/59 45/52/52 38/45/45
f 54/61/61 55/62/62 41/48/48
f 54/61/61 41/48/48 44/51/51
f 55/62/62 56/63/63 42/49/49
f 55/62/62 42/49/49 41/48/48
f 57/64/64 58/65/65 59/66/66
f 57/64/64 59/66/66 60/67/67
f 61/68/68 62/69/69 47/54/54
f 61/68/68 47/54/54 50/57/57
f 63/70/70 64/71/71 57/64/64
f 63/70/70 57/64/64 60/67/67
f 65/72/72 63/70/70 60/67/67
f 65/72/72 60/67/67 59/66/66
f 50/57/57 66/73/73 67/74/74
f 50/57/57 67/74/74 61/68/68
f 68/75/75 66/73/73 50/57/57
f 68/75/75 50/57/57 49/56/56
f 48/55/55 69/76/76 68/75/75
f 48/55/55 68/75/75 49/56/56
f 45/52/52 53/60/60 54/61/61
f 45/52/52 54/61/61 44/51/51
f 43/50/50 46/53/53 45/52/52
f 43/50/50 45/52/52 44/51/51
f 61/68/68 67/74/74 65/72/72
f 61/68/68 65/72/72 59/66/66
f 59/66/66 58/65/65 62/69/69
f 59/66/66 62/69/69 61/68/68
f 70/77/77 71/78/78 48/55/55
f 70/77/77 48/55/55 47/54/54
f 71/78/78 72/79/79 69/76/76
f 71/78/78 69/76/76 48/55/55
f 73/80/80 1/1/1 3/3/3
f 73/80/80 3/3/3 51/58/58
f 74/81/81 75/82/82 53/60/60
f 74/81/81 53/60/60 52/59/59
f 75/82/82 76/83/83 54/61/61
f 75/82/82 54/61/61 53/60/60
f 76/83/83 77/84/84 55/62/62
f 76/83/83 55/62/62 54/61/61
f 77/84/84 78/85/85 56/63/63
f 77/84/84 56/63/63 55/62/62
f 57/64/64 64/71/71 79/86/86
f 57/64/64 79/86/86 80/87/87
f 80/87/87 81/88/88 58/65/65
f 80/87/87 58/65/65 57/64/64
f 81/88/88 82/89/89 62/69/69
f 81/88/88 62/69/69 58/65/65
f 47/54/54 62/69/69 82/89/89
f 47/54/54 82/89/89 70/77/77
f 83/90/90 84/91/91 85/92/92
f 83/90/90 85/92/92 86/93/93
f 84/91/91 87/94/94 88/95/95
f 84/91/91 88/95/95 85/92/92
f 87/94/94 89/96/96 90/97/97
f 87/94/94 90/97/97 88/95/95
f 89/96/96 91/98/98 92/99/99
f 89/96/96 92/99/99 90/97/97
f 91/98/98 93/100/100 94/101/101
f 91/98/98 94/101/101 92/99/99
f 95/102/102 96/103/103 97/104/104
f 95/102/102 97/104/104 98/105/105
f 99/106/106 100/107/107 95/102/102
f 99/106/106 95/102/102 98/105/105
f 101/108/108 102/109/109 103/110/110
f 101/108/108 103/110/110 104/111/111
f 104/111/111 105/112/112 106/113/113
f 104/111/111 106/113/113 101/108/108
f 107/114/114 106/113/113 105/112/112
f 107/114/114 105/112/112 108/115/115
f 108/115/115 109/116/116 110/117/117
f 108/115/115 110/117/117 107/114/114
f 96/103/103 94/101/101 93/100/100
f 96/103/103 93/100/100 97/104/104
f 69/76/76 72/79/79 73/80/80
f 69/76/76 73/80/80 51/58/58
f 68/75/75 69/76/76 51/58/58
f 68/75/75 51/58/58 40/47/47
f 40/47/47 39/46/46 66/73/73
f 40/47/47 66/73/73 68/75/75
f 67/74/74 66/73/73 39/46/46
f 67/74/74 39/46/46 46/53/53
f 65/72/72 67/74/74 46/53/53
f 65/72/72 46/53/53 43/50/50
f 43/50/50 42/49/49 63/70/70
f 43/50/50 63/70/70 65/72/72
f 42/49/49 56/63/63 64/71/71
f 42/49/49 64/71/71 63/70/70
f 79/86/86 64/71/71 56/63/63
f 79/86/86 56/63/63 78/85/85
f 109/116/116 111/118/118 112/119/119
f 109/116/116 112/119/119 110/117/117
f 111/118/118 83/90/90 86/93/93
f 111/118/118 86/93/93 112/119/119
f 86/93/93 85/92/92 81/88/88
f 86/93/93 81/88/88 80/87/87
f 112/119/119 86/93/93 80/87/87
f 112/119/119 80/87/87 79/86/86
f 110/117/117 112/119/119 79/86/86
f 110/117/117 79/86/86 78/85/85
f 107/114/114 110/117/117 78/85/85
f 107/114/114 78/85/85 77/84/84
f 77/84/84 76/83/83 106/113/113
f 77/84/84 106/113/113 107/114/114
f 101/108/108 106/113/113 76/83/83
f 101/108/108 76/83/83 75/82/82
f 75/82/82 74/81/81 102/109/109
f 75/82/82 102/109/109 101/108/108
f 100/107/107 2/2/2 1/1/1
f 100/107/107 1/1/1 95/102/102
f 1/1/1 73/80/80 96/103/103
f 1/1/1 96/103/103 95/102/102
f 72/79/79 94/101/101 96/103/103
f 72/79/79 96/103/103 73/80/80
f 92/99/99 94/101/101 72/79/79
f 92/99/99 72/79/79 71/78/78
f 90/97/97 92/99/99 71/78/78
f 90/97/97 71/78/78 70/77/77
f 88/95/95 90/97/97 70/77/77
f 88/95/95 70/77/77 82/89/89
f 85/92/92 88/95/95 82/89/89
f 85/92/92 82/89/89 81/88/88
f 113/120/14 9/121/10 83/90/90
f 113/120/14 83/90/90 111/118/118
f 12/122/15 113/120/14 111/118/118
f 12/122/15 111/118/118 109/116/116
f 114/123/18 12/122/15 109/116/116
f 114/123/18 109/116/116 108/115/115
f 115/124/16 114/123/18 108/115/115
f 115/124/16 108/115/115 105/112/112
f 137/125/120 115/124/16 105/112/112
f 137/125/120 105/112/112 104/111/111
f 116/126/121 137/125/120 104/111/111
f 116/126/121 104/111/111 103/110/110
f 117/127/21 118/128/20 99/106/106
f 117/127/21 99/106/106 98/105/105
f 128/129/122 117/127/21 98/105/105
f 128/129/122 98/105/105 97/104/104
f 5/130/6 128/129/122 97/104/104
f 5/130/6 97/104/104 93/100/100
f 119/131/4 5/130/6 93/100/100
f 119/131/4 93/100/100 91/98/98
f 120/132/123 119/131/4 91/98/98
f 120/132/123 91/98/98 89/96/96
f 89/96/96 87/94/94 125/133/124
f 89/96/96 125/133/124 120/132/123
f 87/94/94 84/91/91 121/134/12
f 87/94/94 121/134/12 125/133/124
f 84/91/91 83/90/90 9/121/10
f 84/91/91 9/121/10 121/134/12
f 122/135/125 119/4/4 120/136/123
f 122/135/125 120/136/123 123/137/126
f 124/138/127 123/137/126 120/136/123
f 124/138/127 120/136/123 125/139/124
f 126/140/128 124/138/127 125/139/124
f 126/140/128 125/139/124 121/12/12
f 8/9/9 126/140/128 121/12/12
f 8/9/9 121/12/12 10/11/11
f 127/141/129 128/142/122 5/6/6
f 127/141/129 5/6/6 4/5/5
f 122/135/125 129/143/130 4/5/5
f 122/135/125 4/5/5 119/4/4
f 130/144/131 129/143/130 122/135/125
f 130/144/131 122/135/125 131/145/132
f 123/137/126 132/146/133 131/145/132
f 123/137/126 131/145/132 122/135/125
f 133/147/134 132/146/133 123/137/126
f 133/147/134 123/137/126 124/138/127
f 134/148/135 133/147/134 124/138/127
f 134/148/135 124/138/127 126/140/128
f 126/140/128 8/9/9 7/8/8
f 126/140/128 7/8/8 134/148/135
f 10/11/11 135/149/136 6/7/7
f 10/11/11 6/7/7 8/9/9
f 135/149/136 10/11/11 9/10/10
f 135/149/136 9/10/10 113/14/14
f 11/13/13 21/28/28 135/149/136
f 11/13/13 135/149/136 113/14/14
f 136/150/137 11/13/13 12/15/15
f 136/150/137 12/15/15 114/18/18
f 26/33/33 21/28/28 11/13/13
f 26/33/33 11/13/13 136/150/137
f 114/18/18 13/17/17 18/25/25
f 114/18/18 18/25/25 136/150/137
f 24/31/31 26/33/33 136/150/137
f 24/31/31 136/150/137 18/25/25
f 19/26/26 18/25/25 13/17/17
f 19/26/26 13/17/17 115/16/16
f 15/22/22 19/26/26 115/16/16
f 15/22/22 115/16/16 137/151/120
f 35/42/42 15/22/22 137/151/120
f 35/42/42 137/151/120 116/152/121
f 127/141/129 36/43/43 117/21/21
f 127/141/129 117/21/21 128/142/122
f 36/43/43 138/153/138 139/154/139
f 36/43/43 139/154/139 14/19/19
f 4/5/5 140/155/140 141/156/141
f 4/5/5 141/156/141 127/141/129
f 129/143/130 130/144/131 140/155/140
f 129/143/130 140/155/140 4/5/5
f 142/157/142 36/43/43 127/141/129
f 142/157/142 127/141/129 141/156/141
f 138/153/138 36/43/43 142/157/142
f 138/153/138 142/157/142 143/158/143
f 144/159/144 139/154/139 138/153/138
f 144/159/144 138/153/138 143/158/143
f 17/24/24 16/23/23 139/154/139
f 17/24/24 139/154/139 144/159/144
f 20/27/27 19/26/26 15/22/22
f 20/27/27 15/22/22 17/24/24
f 145/160/145 24/31/31 18/25/25
f 145/160/145 18/25/25 20/27/27
f 146/161/146 20/27/27 17/24/24
f 146/161/146 17/24/24 144/159/144
f 20/27/27 146/161/146 147/162/147
f 20/27/27 147/162/147 145/160/145
f 148/163/148 146/161/146 144/159/144
f 148/163/148 144/159/144 143/158/143
f 149/164/149 147/162/147 146/161/146
f 149/164/149 146/161/146 148/163/148
f 150/165/150 148/163/148 143/158/143
f 150/165/150 143/158/143 142/157/142
f 151/166/151 149/164/149 148/163/148
f 151/166/151 148/163/148 150/165/150
f 142/157/142 141/156/141 140/155/140
f 142/157/142 140/155/140 150/165/150
f 152/167/152 151/166/151 150/165/150
f 152/167/152 150/165/150 140/155/140
f 140/155/140 130/144/131 131/145/132
f 140/155/140 131/145/132 152/167/152
f 133/147/134 33/40/40 131/145/132
f 133/147/134 131/145/132 132/146/133
f 34/41/41 33/40/40 133/147/134
f 34/41/41 133/147/134 134/148/135
f 153/168/153 34/41/41 134/148/135
f 153/168/153 134/148/135 7/8/8
f 23/30/30 153/168/153 7/8/8
f 23/30/30 7/8/8 6/7/7
f 135/149/136 21/28/28 23/30/30
f 135/149/136 23/30/30 6/7/7
f 26/33/33 25/32/32 22/29/29
f 26/33/33 22/29/29 21/28/28
f 147/162/147 149/164/149 29/36/36
f 147/162/147 29/36/36 28/35/35
f 28/35/35 24/31/31 145/160/145
f 28/35/35 145/160/145 147/162/147
f 22/29/29 25/32/32 24/31/31
f 22/29/29 24/31/31 28/35/35
f 28/35/35 27/34/34 23/30/30
f 28/35/35 23/30/30 22/29/29
f 27/34/34 31/38/38 153/168/153
f 27/34/34 153/168/153 23/30/30
f 32/39/39 31/38/38 27/34/34
f 32/39/39 27/34/34 29/36/36
f 32/39/39 29/36/36 149/164/149
f 32/39/39 149/164/149 151/166/151
f 31/38/38 30/37/37 34/41/41
f 31/38/38 34/41/41 153/168/153
f 131/145/132 33/40/40 30/37/37
f 131/145/132 30/37/37 152/167/152
f 30/37/37 32/39/39 151/166/151
f 30/37/37 151/166/151 152/167/152
f 139/154/139 16/23/23 35/42/42
f 139/154/139 35/42/42 14/19/19
f 14/19/19 35/42/42 116/152/121
f 14/19/19 116/152/121 118/20/20
f 99/106/106 118/128/20 116/126/121
f 99/106/106 116/126/121 103/110/110
f 102/109/109 100/107/107 99/106/106
f 102/109/109 99/106/106 103/110/110
f 74/81/81 2/2/2 100/107/107
f 74/81/81 100/107/107 102/109/109
f 3/3/3 2/2/2 74/81/81
f 3/3/3 74/81/81 52/59/59
