# Blender 4.5.3 LTS
# www.blender.org
o WindowsDown
v 0.925000 -4.875000 8.849999
v 1.100000 -4.875000 8.650000
v 1.100000 -4.875000 11.350000
v 0.925000 -4.875000 11.150000
v -1.100000 -4.875000 8.650000
v -0.925000 -4.875000 8.849999
v -1.100000 -4.875000 11.350000
v -0.925000 -4.875000 11.150000
v 1.100000 -5.025000 8.650000
v 0.925000 -5.025000 8.849999
v 1.100000 -5.025000 11.350000
v 0.925000 -5.025000 11.150000
v -1.100000 -5.025000 8.650000
v -0.925000 -5.025000 8.849999
v -1.100000 -5.025000 11.350000
v -0.925000 -5.025000 11.150000
v -4.875000 -0.925000 8.849999
v -4.875000 -1.100001 8.650000
v -4.875000 -1.100001 11.350000
v -4.875000 -0.925000 11.150000
v -4.875000 1.100000 8.650000
v -4.875000 0.924999 8.849999
v -4.875000 1.100000 11.350000
v -4.875000 0.924999 11.150000
v -5.025000 -1.100001 8.650000
v -5.025000 -0.925000 8.849999
v -5.025000 -1.100001 11.350000
v -5.025000 -0.925000 11.150000
v -5.025000 1.100000 8.650000
v -5.025000 0.924999 8.849999
v -5.025000 1.100000 11.350000
v -5.025000 0.924999 11.150000
v 5.025000 -0.925000 8.849999
v 5.025000 -1.100000 8.650000
v 5.025000 -1.100000 11.350000
v 5.025000 -0.925000 11.150000
v 5.024999 1.100000 8.650000
v 5.024999 0.924999 8.849999
v 5.024999 1.100000 11.350000
v 5.024999 0.924999 11.150000
v 4.875000 -1.100000 8.650000
v 4.875000 -0.925000 8.849999
v 4.875000 -1.100000 11.350000
v 4.875000 -0.925000 11.150000
v 4.874999 1.100000 8.650000
v 4.874999 0.924999 8.849999
v 4.874999 1.100000 11.350000
v 4.874999 0.924999 11.150000
v 0.925000 5.025000 8.849999
v 1.100000 5.025000 8.650000
v 1.100000 5.025000 11.350000
v 0.925000 5.025000 11.150000
v -1.100000 5.025000 8.650000
v -0.925000 5.025000 8.849999
v -1.100000 5.025000 11.350000
v -0.925000 5.025000 11.150000
v 1.100000 4.874999 8.650000
v 0.925000 4.874999 8.849999
v 1.100000 4.874999 11.350000
v 0.925000 4.874999 11.150000
v -1.100000 4.874999 8.650000
v -0.925000 4.874999 8.849999
v -1.100000 4.874999 11.350000
v -0.925000 4.874999 11.150000
vn -0.0000 1.0000 -0.0000
vn -1.0000 -0.0000 -0.0000
vn -0.0000 -1.0000 -0.0000
vn 1.0000 -0.0000 -0.0000
vn -0.0000 -0.0000 -1.0000
vn -0.0000 -0.0000 1.0000
vt 0.625000 0.000000
vt 0.625000 0.250000
vt 0.606481 0.019886
vt 0.375000 0.000000
vt 0.393519 0.230114
vt 0.375000 0.250000
vt 0.375000 0.500000
vt 0.625000 0.500000
vt 0.625000 0.750000
vt 0.606481 0.519886
vt 0.375000 0.750000
vt 0.393518 0.519886
vt 0.393519 0.730114
vt 0.375000 1.000000
vt 0.125000 0.750000
vt 0.125000 0.500000
vt 0.875000 0.500000
vt 0.875000 0.750000
vt 0.393518 0.019886
vt 0.606482 0.230114
vt 0.606482 0.730114
vt 0.625000 1.000000
s 0
f 3/1/1 4/3/1 7/2/1
f 2/4/1 5/6/1 6/5/1
f 7/2/2 5/6/2 13/7/2
f 15/8/3 16/10/3 11/9/3
f 9/11/3 10/13/3 14/12/3
f 11/9/4 9/11/4 2/14/4
f 13/7/5 5/16/5 2/15/5
f 7/17/6 15/8/6 11/9/6
f 14/7/4 6/6/4 8/2/4
f 1/14/2 10/11/2 12/9/2
f 1/15/6 6/16/6 14/7/6
f 8/17/5 4/18/5 12/9/5
f 19/1/4 20/3/4 23/2/4
f 18/4/4 21/6/4 22/5/4
f 23/2/1 21/6/1 29/7/1
f 31/8/2 32/10/2 27/9/2
f 25/11/2 26/13/2 30/12/2
f 27/9/3 25/11/3 18/14/3
f 29/7/5 21/16/5 18/15/5
f 23/17/6 31/8/6 27/9/6
f 30/7/3 22/6/3 24/2/3
f 17/14/1 26/11/1 28/9/1
f 17/15/6 22/16/6 30/7/6
f 24/17/5 20/18/5 28/9/5
f 35/1/4 36/3/4 39/2/4
f 34/4/4 37/6/4 38/5/4
f 39/2/1 37/6/1 45/7/1
f 47/8/2 48/10/2 43/9/2
f 41/11/2 42/13/2 46/12/2
f 43/9/3 41/11/3 34/14/3
f 45/7/5 37/16/5 34/15/5
f 39/17/6 47/8/6 43/9/6
f 46/7/3 38/6/3 40/2/3
f 33/14/1 42/11/1 44/9/1
f 33/15/6 38/16/6 46/7/6
f 40/17/5 36/18/5 44/9/5
f 51/1/1 52/3/1 55/2/1
f 50/4/1 53/6/1 54/5/1
f 55/2/2 53/6/2 61/7/2
f 63/8/3 64/10/3 59/9/3
f 57/11/3 58/13/3 62/12/3
f 59/9/4 57/11/4 50/14/4
f 61/7/5 53/16/5 50/15/5
f 55/17/6 63/8/6 59/9/6
f 62/7/4 54/6/4 56/2/4
f 49/14/2 58/11/2 60/9/2
f 49/15/6 54/16/6 62/7/6
f 56/17/5 52/18/5 60/9/5
f 4/3/1 2/4/1 1/19/1
f 7/2/1 6/5/1 5/6/1
f 7/2/1 8/20/1 6/5/1
f 4/3/1 3/1/1 2/4/1
f 7/2/1 4/3/1 8/20/1
f 2/4/1 6/5/1 1/19/1
f 7/2/2 13/7/2 15/8/2
f 16/10/3 13/7/3 14/12/3
f 11/9/3 10/13/3 9/11/3
f 11/9/3 12/21/3 10/13/3
f 16/10/3 15/8/3 13/7/3
f 11/9/3 16/10/3 12/21/3
f 9/11/3 14/12/3 13/7/3
f 11/9/4 2/14/4 3/22/4
f 13/7/5 2/15/5 9/11/5
f 7/17/6 11/9/6 3/18/6
f 14/7/4 8/2/4 16/8/4
f 1/14/2 12/9/2 4/22/2
f 1/15/6 14/7/6 10/11/6
f 8/17/5 12/9/5 16/8/5
f 20/3/4 18/4/4 17/19/4
f 23/2/4 22/5/4 21/6/4
f 23/2/4 24/20/4 22/5/4
f 20/3/4 19/1/4 18/4/4
f 23/2/4 20/3/4 24/20/4
f 18/4/4 22/5/4 17/19/4
f 23/2/1 29/7/1 31/8/1
f 32/10/2 29/7/2 30/12/2
f 27/9/2 26/13/2 25/11/2
f 27/9/2 28/21/2 26/13/2
f 32/10/2 31/8/2 29/7/2
f 27/9/2 32/10/2 28/21/2
f 25/11/2 30/12/2 29/7/2
f 27/9/3 18/14/3 19/22/3
f 29/7/5 18/15/5 25/11/5
f 23/17/6 27/9/6 19/18/6
f 30/7/3 24/2/3 32/8/3
f 17/14/1 28/9/1 20/22/1
f 17/15/6 30/7/6 26/11/6
f 24/17/5 28/9/5 32/8/5
f 36/3/4 34/4/4 33/19/4
f 39/2/4 38/5/4 37/6/4
f 39/2/4 40/20/4 38/5/4
f 36/3/4 35/1/4 34/4/4
f 39/2/4 36/3/4 40/20/4
f 34/4/4 38/5/4 33/19/4
f 39/2/1 45/7/1 47/8/1
f 48/10/2 45/7/2 46/12/2
f 43/9/2 42/13/2 41/11/2
f 43/9/2 44/21/2 42/13/2
f 48/10/2 47/8/2 45/7/2
f 43/9/2 48/10/2 44/21/2
f 41/11/2 46/12/2 45/7/2
f 43/9/3 34/14/3 35/22/3
f 45/7/5 34/15/5 41/11/5
f 39/17/6 43/9/6 35/18/6
f 46/7/3 40/2/3 48/8/3
f 33/14/1 44/9/1 36/22/1
f 33/15/6 46/7/6 42/11/6
f 40/17/5 44/9/5 48/8/5
f 52/3/1 50/4/1 49/19/1
f 55/2/1 54/5/1 53/6/1
f 55/2/1 56/20/1 54/5/1
f 52/3/1 51/1/1 50/4/1
f 55/2/1 52/3/1 56/20/1
f 50/4/1 54/5/1 49/19/1
f 55/2/2 61/7/2 63/8/2
f 64/10/3 61/7/3 62/12/3
f 59/9/3 58/13/3 57/11/3
f 59/9/3 60/21/3 58/13/3
f 64/10/3 63/8/3 61/7/3
f 59/9/3 64/10/3 60/21/3
f 57/11/3 62/12/3 61/7/3
f 59/9/4 50/14/4 51/22/4
f 61/7/5 50/15/5 57/11/5
f 55/17/6 59/9/6 51/18/6
f 62/7/4 56/2/4 64/8/4
f 49/14/2 60/9/2 52/22/2
f 49/15/6 62/7/6 58/11/6
f 56/17/5 60/9/5 64/8/5
