# Blender 4.5.3 LTS
# www.blender.org
o WindowsUpv2
v -4.875000 -2.925000 1.350000
v -1.075000 -5.025000 1.350000
v 1.075000 -5.025000 1.350000
v 1.075000 5.024999 1.350000
v -4.875000 1.075000 1.350000
v -1.075000 5.024999 1.350000
v 4.875000 1.075000 1.350000
v 4.875000 -2.925000 1.350000
v -4.875000 -3.100000 1.150000
v -0.900000 -5.025000 1.150000
v 0.899999 -5.025000 1.150000
v 0.899999 5.024999 1.150000
v -4.875000 0.900000 1.150000
v -0.900000 5.024999 1.150000
v 4.875000 0.900000 1.150000
v 4.875000 -3.100000 1.150000
v -0.900000 5.024999 3.850000
v -0.900000 -5.025000 3.850000
v 4.875000 -3.100000 3.850000
v 0.899999 5.024999 3.850000
v 4.875000 0.900000 3.850000
v -4.875000 0.900000 3.850000
v -4.875000 -3.100000 3.850000
v 0.899999 -5.025000 3.850000
v 1.075000 5.024999 3.650000
v -1.075000 5.024999 3.650000
v 4.875000 1.075000 3.650000
v -1.075000 -5.025000 3.650000
v -4.875000 1.075000 3.650000
v 1.075000 -5.025000 3.650000
v 4.875000 -2.925000 3.650000
v -4.875000 -2.925000 3.650000
v -3.100000 -5.025000 1.150000
v -4.875000 3.100000 1.150000
v 4.875000 3.100000 1.150000
v 3.100000 -5.025000 1.150000
v -4.875000 -0.900000 1.150000
v 3.100000 5.024999 1.150000
v 4.875000 -0.900000 1.150000
v -3.100000 5.024999 1.150000
v 2.924999 -5.025000 1.350000
v -2.924999 -5.025000 1.350000
v 4.875000 -1.075000 1.350000
v -2.924999 5.024999 1.350000
v 2.924999 5.024999 1.350000
v -4.875000 2.925000 1.350000
v -4.875000 -1.075000 1.350000
v 4.875000 2.925000 1.350000
v -3.100000 -5.025000 3.850000
v -3.100000 5.024999 3.850000
v 4.875000 -0.900000 3.850000
v 3.100000 5.024999 3.850000
v -4.875000 -0.900000 3.850000
v -4.875000 3.100000 3.850000
v 4.875000 3.100000 3.850000
v 3.100000 -5.025000 3.850000
v -2.924999 -5.025000 3.650000
v 2.924999 5.024999 3.650000
v -4.875000 -1.075000 3.650000
v 4.875000 -1.075000 3.650000
v -4.875000 2.925000 3.650000
v 4.875000 2.925000 3.650000
v -2.924999 5.024999 3.650000
v 2.924999 -5.025000 3.650000
v -5.025000 -3.100000 1.150000
v -0.900000 4.874999 1.150000
v 0.899999 4.875000 1.150000
v 0.899999 -4.875000 1.150000
v -5.025000 0.900000 1.150000
v 5.025000 0.900000 1.150000
v 5.025000 -3.100000 1.150000
v -0.900000 -4.875000 1.150000
v -5.025000 -2.925000 1.350000
v 5.025000 1.075000 1.350000
v -5.025000 1.075000 1.350000
v -1.075000 4.874999 1.350000
v 5.025000 -2.925000 1.350000
v -1.075000 -4.875000 1.350000
v 1.075000 -4.875000 1.350000
v 1.075000 4.875000 1.350000
v 5.025000 0.900000 3.850000
v -5.025000 0.900000 3.850000
v -0.900000 -4.875000 3.850000
v 0.899999 4.875000 3.850000
v 5.025000 -3.100000 3.850000
v 0.899999 -4.875000 3.850000
v -0.900000 4.874999 3.850000
v -5.025000 -3.100000 3.850000
v -1.075000 -4.875000 3.650000
v 1.075000 -4.875000 3.650000
v -5.025000 -2.925000 3.650000
v -5.025000 1.075000 3.650000
v 5.025000 1.075000 3.650000
v 5.025000 -2.925000 3.650000
v 1.075000 4.875000 3.650000
v -1.075000 4.874999 3.650000
v 3.100000 4.875000 1.150000
v 5.025000 3.100000 1.150000
v 5.025000 -0.900000 1.150000
v -5.025000 3.100000 1.150000
v -5.025000 -0.900000 1.150000
v -3.100000 4.874999 1.150000
v -3.100000 -4.875000 1.150000
v 3.100000 -4.875000 1.150000
v 5.025000 2.925000 1.350000
v -5.025000 -1.075000 1.350000
v 2.924999 -4.875000 1.350000
v -2.924999 4.874999 1.350000
v 5.025000 -1.075000 1.350000
v -5.025000 2.925000 1.350000
v -2.924999 -4.875000 1.350000
v 2.924999 4.875000 1.350000
v -3.100000 -4.875000 3.850000
v 5.025000 -0.900000 3.850000
v 5.025000 3.100000 3.850000
v -3.100000 4.874999 3.850000
v 3.100000 -4.875000 3.850000
v -5.025000 -0.900000 3.850000
v -5.025000 3.100000 3.850000
v 3.100000 4.875000 3.850000
v 5.025000 2.925000 3.650000
v 2.924999 -4.875000 3.650000
v -5.025000 -1.075000 3.650000
v 5.025000 -1.075000 3.650000
v -2.924999 4.874999 3.650000
v -5.025000 2.925000 3.650000
v 2.924999 4.875000 3.650000
v -2.924999 -4.875000 3.650000
vn 1.0000 -0.0000 -0.0000
vn -0.0000 1.0000 -0.0000
vn -1.0000 -0.0000 -0.0000
vn -0.0000 -1.0000 -0.0000
vn -0.0000 -0.0000 -1.0000
vn -0.0000 -0.0000 1.0000
vt 0.625000 0.000000
vt 0.625000 0.250000
vt 0.606481 0.019886
vt 0.375000 0.000000
vt 0.393519 0.230114
vt 0.375000 0.250000
vt 0.375000 0.500000
vt 0.606481 0.519886
vt 0.625000 0.500000
vt 0.625000 0.750000
vt 0.393519 0.730114
vt 0.393518 0.519886
vt 0.375000 1.000000
vt 0.375000 0.750000
vt 0.125000 0.750000
vt 0.125000 0.500000
vt 0.875000 0.500000
vt 0.875000 0.750000
vt 0.606482 0.230114
vt 0.393518 0.019886
vt 0.606482 0.730114
vt 0.625000 1.000000
s 0
f 23/1/1 32/3/1 53/2/1
f 9/4/1 37/6/1 47/5/1
f 53/2/2 37/6/2 101/7/2
f 123/8/3 88/10/3 118/9/3
f 73/11/3 106/12/3 101/7/3
f 88/10/4 65/14/4 9/13/4
f 101/7/5 37/16/5 9/15/5
f 53/17/6 118/9/6 88/10/6
f 106/7/4 47/6/4 59/2/4
f 1/13/2 73/14/2 91/10/2
f 1/15/6 47/16/6 106/7/6
f 59/17/5 32/18/5 91/10/5
f 60/19/3 19/1/3 51/2/3
f 8/20/3 43/5/3 39/6/3
f 114/9/2 99/7/2 39/6/2
f 85/10/1 94/21/1 114/9/1
f 99/7/1 109/12/1 77/11/1
f 19/22/4 16/13/4 71/14/4
f 71/14/5 16/15/5 39/16/5
f 19/18/6 85/10/6 114/9/6
f 124/9/4 60/2/4 43/6/4
f 31/22/2 94/10/2 77/14/2
f 77/14/6 109/7/6 43/16/6
f 124/9/5 94/10/5 31/18/5
f 62/19/3 21/1/3 55/2/3
f 7/20/3 48/5/3 35/6/3
f 115/9/2 98/7/2 35/6/2
f 81/10/1 93/21/1 115/9/1
f 98/7/1 105/12/1 74/11/1
f 21/22/4 15/13/4 70/14/4
f 70/14/5 15/15/5 35/16/5
f 21/18/6 81/10/6 115/9/6
f 121/9/4 62/2/4 48/6/4
f 27/22/2 93/10/2 74/14/2
f 74/14/6 105/7/6 48/16/6
f 121/9/5 93/10/5 27/18/5
f 17/1/2 26/3/2 50/1/2
f 14/6/2 40/6/2 44/5/2
f 50/2/3 40/7/3 102/7/3
f 125/8/4 87/9/4 116/9/4
f 66/14/4 76/12/4 108/12/4
f 87/10/1 66/13/1 14/13/1
f 102/7/5 40/16/5 14/15/5
f 50/17/6 116/9/6 87/10/6
f 108/6/1 44/6/1 63/2/1
f 6/14/3 76/14/3 96/10/3
f 6/15/6 44/16/6 108/7/6
f 63/17/5 26/18/5 96/10/5
f 22/1/1 29/3/1 54/2/1
f 13/4/1 34/6/1 46/5/1
f 54/2/2 34/6/2 100/7/2
f 126/8/3 82/10/3 119/9/3
f 69/14/3 75/11/3 110/12/3
f 82/10/4 69/14/4 13/13/4
f 100/7/5 34/16/5 13/15/5
f 54/17/6 119/9/6 82/10/6
f 110/7/4 46/6/4 61/2/4
f 5/13/2 75/14/2 92/10/2
f 5/15/6 46/16/6 110/7/6
f 61/17/5 29/18/5 92/10/5
f 52/1/2 58/3/2 20/1/2
f 4/5/2 45/5/2 38/6/2
f 120/2/1 97/7/1 38/7/1
f 95/8/4 120/9/4 84/9/4
f 112/12/4 80/12/4 67/14/4
f 20/10/3 12/13/3 67/13/3
f 67/14/5 12/15/5 38/16/5
f 20/18/6 84/10/6 120/9/6
f 127/2/3 58/2/3 45/6/3
f 25/10/1 95/10/1 80/14/1
f 80/14/6 112/7/6 45/16/6
f 127/9/5 95/10/5 25/18/5
f 30/3/4 56/1/4 24/1/4
f 11/6/4 36/6/4 41/5/4
f 56/2/1 36/7/1 104/7/1
f 117/9/2 122/8/2 86/9/2
f 79/12/2 107/12/2 104/14/2
f 86/10/3 68/13/3 11/13/3
f 104/7/5 36/16/5 11/15/5
f 56/17/6 117/9/6 86/10/6
f 107/6/3 41/6/3 64/2/3
f 3/14/1 79/14/1 90/10/1
f 3/15/6 41/16/6 107/7/6
f 64/17/5 30/18/5 90/10/5
f 57/3/4 18/1/4 49/1/4
f 42/5/4 33/6/4 10/6/4
f 113/2/3 103/7/3 33/7/3
f 83/9/2 89/8/2 113/9/2
f 111/12/2 78/12/2 72/14/2
f 18/10/1 10/13/1 72/13/1
f 72/14/5 10/15/5 33/16/5
f 18/18/6 83/10/6 113/9/6
f 128/2/1 57/2/1 42/6/1
f 28/10/3 89/10/3 78/14/3
f 78/14/6 111/7/6 42/16/6
f 128/9/5 89/10/5 28/18/5
f 32/3/1 9/4/1 1/20/1
f 53/2/1 47/5/1 37/6/1
f 53/2/1 59/19/1 47/5/1
f 32/3/1 23/1/1 9/4/1
f 53/2/1 32/3/1 59/19/1
f 9/4/1 47/5/1 1/20/1
f 53/2/2 101/7/2 118/9/2
f 123/8/3 101/7/3 106/12/3
f 88/10/3 73/11/3 65/14/3
f 88/10/3 91/21/3 73/11/3
f 123/8/3 118/9/3 101/7/3
f 88/10/3 123/8/3 91/21/3
f 73/11/3 101/7/3 65/14/3
f 88/10/4 9/13/4 23/22/4
f 101/7/5 9/15/5 65/14/5
f 53/17/6 88/10/6 23/18/6
f 106/7/4 59/2/4 123/9/4
f 1/13/2 91/10/2 32/22/2
f 1/15/6 106/7/6 73/14/6
f 59/17/5 91/10/5 123/9/5
f 60/19/3 39/6/3 43/5/3
f 19/1/3 8/20/3 16/4/3
f 19/1/3 31/3/3 8/20/3
f 60/19/3 51/2/3 39/6/3
f 19/1/3 60/19/3 31/3/3
f 8/20/3 39/6/3 16/4/3
f 114/9/2 39/6/2 51/2/2
f 94/21/1 71/14/1 77/11/1
f 114/9/1 109/12/1 99/7/1
f 114/9/1 124/8/1 109/12/1
f 94/21/1 85/10/1 71/14/1
f 114/9/1 94/21/1 124/8/1
f 99/7/1 77/11/1 71/14/1
f 19/22/4 71/14/4 85/10/4
f 71/14/5 39/16/5 99/7/5
f 19/18/6 114/9/6 51/17/6
f 124/9/4 43/6/4 109/7/4
f 31/22/2 77/14/2 8/13/2
f 77/14/6 43/16/6 8/15/6
f 124/9/5 31/18/5 60/17/5
f 62/19/3 35/6/3 48/5/3
f 21/1/3 7/20/3 15/4/3
f 21/1/3 27/3/3 7/20/3
f 62/19/3 55/2/3 35/6/3
f 21/1/3 62/19/3 27/3/3
f 7/20/3 35/6/3 15/4/3
f 115/9/2 35/6/2 55/2/2
f 93/21/1 70/14/1 74/11/1
f 115/9/1 105/12/1 98/7/1
f 115/9/1 121/8/1 105/12/1
f 93/21/1 81/10/1 70/14/1
f 115/9/1 93/21/1 121/8/1
f 98/7/1 74/11/1 70/14/1
f 21/22/4 70/14/4 81/10/4
f 70/14/5 35/16/5 98/7/5
f 21/18/6 115/9/6 55/17/6
f 121/9/4 48/6/4 105/7/4
f 27/22/2 74/14/2 7/13/2
f 74/14/6 48/16/6 7/15/6
f 121/9/5 27/18/5 62/17/5
f 26/3/2 14/4/2 6/20/2
f 50/1/2 44/20/2 40/4/2
f 50/1/2 63/3/2 44/20/2
f 26/3/2 17/1/2 14/4/2
f 50/1/2 26/3/2 63/3/2
f 14/6/2 44/5/2 6/5/2
f 50/2/3 102/7/3 116/2/3
f 125/8/4 102/7/4 108/12/4
f 87/9/4 76/12/4 66/7/4
f 87/9/4 96/8/4 76/12/4
f 125/8/4 116/9/4 102/7/4
f 87/9/4 125/8/4 96/8/4
f 66/14/4 108/12/4 102/14/4
f 87/10/1 14/13/1 17/10/1
f 102/7/5 14/15/5 66/14/5
f 50/17/6 87/10/6 17/18/6
f 108/6/1 63/2/1 125/2/1
f 6/14/3 96/10/3 26/10/3
f 6/15/6 108/7/6 76/14/6
f 63/17/5 96/10/5 125/9/5
f 29/3/1 13/4/1 5/20/1
f 54/2/1 46/5/1 34/6/1
f 54/2/1 61/19/1 46/5/1
f 29/3/1 22/1/1 13/4/1
f 54/2/1 29/3/1 61/19/1
f 13/4/1 46/5/1 5/20/1
f 54/2/2 100/7/2 119/9/2
f 126/8/3 100/7/3 110/12/3
f 82/10/3 75/11/3 69/14/3
f 82/10/3 92/21/3 75/11/3
f 126/8/3 119/9/3 100/7/3
f 82/10/3 126/8/3 92/21/3
f 69/14/3 110/12/3 100/7/3
f 82/10/4 13/13/4 22/22/4
f 100/7/5 13/15/5 69/14/5
f 54/17/6 82/10/6 22/18/6
f 110/7/4 61/2/4 126/9/4
f 5/13/2 92/10/2 29/22/2
f 5/15/6 110/7/6 75/14/6
f 61/17/5 92/10/5 126/9/5
f 58/3/2 38/4/2 45/20/2
f 20/1/2 4/20/2 12/4/2
f 20/1/2 25/3/2 4/20/2
f 58/3/2 52/1/2 38/4/2
f 20/1/2 58/3/2 25/3/2
f 4/5/2 38/6/2 12/6/2
f 120/2/1 38/7/1 52/2/1
f 95/8/4 67/7/4 80/12/4
f 120/9/4 112/12/4 97/7/4
f 120/9/4 127/8/4 112/12/4
f 95/8/4 84/9/4 67/7/4
f 120/9/4 95/8/4 127/8/4
f 112/12/4 67/14/4 97/14/4
f 20/10/3 67/13/3 84/10/3
f 67/14/5 38/16/5 97/7/5
f 20/18/6 120/9/6 52/17/6
f 127/2/3 45/6/3 112/6/3
f 25/10/1 80/14/1 4/14/1
f 80/14/6 45/16/6 4/15/6
f 127/9/5 25/18/5 58/17/5
f 30/3/4 11/4/4 3/20/4
f 56/1/4 41/20/4 36/4/4
f 56/1/4 64/3/4 41/20/4
f 30/3/4 24/1/4 11/4/4
f 56/1/4 30/3/4 64/3/4
f 11/6/4 41/5/4 3/5/4
f 56/2/1 104/7/1 117/2/1
f 122/8/2 104/7/2 107/12/2
f 86/9/2 79/12/2 68/7/2
f 86/9/2 90/8/2 79/12/2
f 122/8/2 117/9/2 104/7/2
f 86/9/2 122/8/2 90/8/2
f 79/12/2 104/14/2 68/14/2
f 86/10/3 11/13/3 24/10/3
f 104/7/5 11/15/5 68/14/5
f 56/17/6 86/10/6 24/18/6
f 107/6/3 64/2/3 122/2/3
f 3/14/1 90/10/1 30/10/1
f 3/15/6 107/7/6 79/14/6
f 64/17/5 90/10/5 122/9/5
f 57/3/4 33/4/4 42/20/4
f 18/1/4 2/20/4 10/4/4
f 18/1/4 28/3/4 2/20/4
f 57/3/4 49/1/4 33/4/4
f 18/1/4 57/3/4 28/3/4
f 42/5/4 10/6/4 2/5/4
f 113/2/3 33/7/3 49/2/3
f 89/8/2 72/7/2 78/12/2
f 113/9/2 111/12/2 103/7/2
f 113/9/2 128/8/2 111/12/2
f 89/8/2 83/9/2 72/7/2
f 113/9/2 89/8/2 128/8/2
f 111/12/2 72/14/2 103/14/2
f 18/10/1 72/13/1 83/10/1
f 72/14/5 33/16/5 103/7/5
f 18/18/6 113/9/6 49/17/6
f 128/2/1 42/6/1 111/6/1
f 28/10/3 78/14/3 2/14/3
f 78/14/6 42/16/6 2/15/6
f 128/9/5 28/18/5 57/17/5
